<svg width="12" height="16" viewBox="0 0 12 16" fill="none" xmlns="http://www.w3.org/2000/svg">
<path fill-rule="evenodd" clip-rule="evenodd" d="M9.23866 3.17924H10.5629C10.944 3.17924 11.3096 3.33069 11.5791 3.60028C11.8486 3.86986 12 4.23549 12 4.61674V13.75C12 13.9388 11.9628 14.1257 11.8906 14.3001C11.8184 14.4745 11.7125 14.633 11.5791 14.7665C11.4456 14.9 11.2872 15.0058 11.1128 15.0781C10.9385 15.1503 10.7516 15.1875 10.5629 15.1875H4.19846C4.00973 15.1875 3.82286 15.1503 3.6485 15.0781C3.47414 15.0058 3.31571 14.9 3.18226 14.7665C3.04881 14.633 2.94295 14.4745 2.87073 14.3001C2.79851 14.1257 2.76133 13.9388 2.76133 13.75V12.8208H1.26775C0.931522 12.8208 0.609065 12.6872 0.371315 12.4493C0.133566 12.2115 0 11.889 0 11.5527V2.08058C0 1.74426 0.133566 1.42172 0.371315 1.18391C0.609065 0.946101 0.931522 0.8125 1.26775 0.8125H7.97092C8.30714 0.8125 8.6296 0.946101 8.86735 1.18391C9.1051 1.42172 9.23866 1.74426 9.23866 2.08058V3.17924ZM1.04816 11.7708C1.10673 11.8284 1.1856 11.8607 1.26775 11.8607H2.7408V4.61674C2.7408 4.23549 2.89222 3.86986 3.16173 3.60028C3.43124 3.33069 3.79678 3.17924 4.17793 3.17924H8.284V2.08058C8.28266 1.99842 8.24908 1.92007 8.19051 1.86245C8.13194 1.80482 8.05307 1.77253 7.97092 1.77254H1.26775C1.1856 1.77253 1.10673 1.80482 1.04816 1.86245C0.989588 1.92007 0.956009 1.99842 0.954662 2.08058V11.5527C0.956009 11.6348 0.989588 11.7132 1.04816 11.7708ZM10.8766 14.0879C10.9669 13.9985 11.0183 13.8771 11.0197 13.75L11.0453 4.61674C11.044 4.48964 10.9926 4.36821 10.9022 4.27881C10.8119 4.18942 10.6899 4.13928 10.5629 4.13929H4.19846C4.07139 4.13928 3.94944 4.18942 3.85911 4.27881C3.76878 4.36821 3.71735 4.48964 3.716 4.61674V13.75C3.71735 13.8771 3.76878 13.9985 3.85911 14.0879C3.94944 14.1773 4.07139 14.2275 4.19846 14.2275H10.5372C10.6643 14.2275 10.7862 14.1773 10.8766 14.0879ZM4.9081 6.69006H9.84229C9.90957 6.68285 9.97757 6.69034 10.0419 6.71205C10.1062 6.73376 10.1654 6.7692 10.2156 6.81609C10.2658 6.86297 10.306 6.92025 10.3335 6.98421C10.361 7.04817 10.3752 7.1174 10.3752 7.1874C10.3752 7.25741 10.361 7.32663 10.3335 7.3906C10.306 7.45456 10.2658 7.51184 10.2156 7.55872C10.1654 7.6056 10.1062 7.64104 10.0419 7.66275C9.97757 7.68446 9.90957 7.69195 9.84229 7.68474H4.9081C4.84082 7.69195 4.77282 7.68446 4.70851 7.66275C4.6442 7.64104 4.58501 7.6056 4.53478 7.55872C4.48454 7.51184 4.44438 7.45456 4.41689 7.3906C4.3894 7.32663 4.3752 7.25741 4.3752 7.1874C4.3752 7.1174 4.3894 7.04817 4.41689 6.98421C4.44438 6.92025 4.48454 6.86297 4.53478 6.81609C4.58501 6.7692 4.6442 6.73376 4.70851 6.71205C4.77282 6.69034 4.84082 6.68285 4.9081 6.69006ZM9.84229 8.69016H4.9081C4.84082 8.68295 4.77282 8.69044 4.70851 8.71215C4.6442 8.73386 4.58501 8.7693 4.53478 8.81618C4.48454 8.86307 4.44438 8.92034 4.41689 8.98431C4.3894 9.04827 4.3752 9.1175 4.3752 9.1875C4.3752 9.25751 4.3894 9.32673 4.41689 9.39069C4.44438 9.45466 4.48454 9.51193 4.53478 9.55882C4.58501 9.6057 4.6442 9.64114 4.70851 9.66285C4.77282 9.68456 4.84082 9.69205 4.9081 9.68484H9.84229C9.90957 9.69205 9.97757 9.68456 10.0419 9.66285C10.1062 9.64114 10.1654 9.6057 10.2156 9.55882C10.2658 9.51193 10.306 9.45466 10.3335 9.39069C10.361 9.32673 10.3752 9.25751 10.3752 9.1875C10.3752 9.1175 10.361 9.04827 10.3335 8.98431C10.306 8.92034 10.2658 8.86307 10.2156 8.81618C10.1654 8.7693 10.1062 8.73386 10.0419 8.71215C9.97757 8.69044 9.90957 8.68295 9.84229 8.69016ZM4.86211 10.6876H9.88828C10.0174 10.6876 10.1413 10.7403 10.2326 10.834C10.3239 10.9278 10.3752 11.055 10.3752 11.1876C10.3752 11.3202 10.3239 11.4474 10.2326 11.5412C10.1413 11.6349 10.0174 11.6876 9.88828 11.6876H4.86211C4.73297 11.6876 4.60912 11.6349 4.51781 11.5412C4.42649 11.4474 4.3752 11.3202 4.3752 11.1876C4.3752 11.055 4.42649 10.9278 4.51781 10.834C4.60912 10.7403 4.73297 10.6876 4.86211 10.6876Z" fill="#0E102D"/>
</svg>
