<svg width="15" height="18" viewBox="0 0 15 18" fill="none" xmlns="http://www.w3.org/2000/svg">
<path d="M8.23561 13.3509C8.23561 13.7617 7.90331 14.094 7.49258 14.094C7.08287 14.094 6.74954 13.7617 6.74954 13.3509V7.53876C6.74954 7.12906 7.08287 6.79573 7.49258 6.79573C7.90331 6.79573 8.23561 7.12906 8.23561 7.53876V13.3509Z" fill="#0E102D"/>
<path fill-rule="evenodd" clip-rule="evenodd" d="M6.76615 1H8.21919C9.42147 1 10.3987 1.97822 10.3987 3.17946V3.88947H14.0313C14.442 3.88947 14.7743 4.22177 14.7743 4.63251C14.7743 5.04324 14.441 5.37554 14.0313 5.37554H13.2718C13.3316 5.63558 13.3378 5.90701 13.2821 6.17532L12.2728 15.1847C12.0499 16.2652 11.1459 17 10.1118 17H4.87449C3.84148 17 2.93642 16.2652 2.72486 15.2539L1.69288 6.10629C1.64231 5.87512 1.6516 5.62332 1.71146 5.37565H0.953972C0.543236 5.37565 0.210938 5.04335 0.210938 4.63261C0.210938 4.22188 0.544266 3.88958 0.953972 3.88958H4.58658V3.17957C4.58658 1.97729 5.56387 1 6.76615 1ZM6.76615 2.45304C6.36574 2.45304 6.03963 2.77916 6.03963 3.17957V3.88958H8.94571V3.17957C8.94571 2.77916 8.6196 2.45304 8.21919 2.45304H6.76615ZM11.8168 5.9412C11.8581 5.72653 11.8003 5.61714 11.7467 5.55109C11.6548 5.43964 11.5156 5.37579 11.3629 5.37682H3.6229C3.46914 5.37682 3.32982 5.4408 3.23901 5.55226C3.18534 5.61829 3.12858 5.72768 3.15851 5.87216L4.19049 15.0197C4.24827 15.2777 4.54033 15.5151 4.87469 15.5151H10.112C10.4463 15.5151 10.7384 15.2777 10.8075 14.9506L11.8168 5.9412Z" fill="#0E102D"/>
<path d="M8.23561 13.3509C8.23561 13.7617 7.90331 14.094 7.49258 14.094C7.08287 14.094 6.74954 13.7617 6.74954 13.3509V7.53876C6.74954 7.12906 7.08287 6.79573 7.49258 6.79573C7.90331 6.79573 8.23561 7.12906 8.23561 7.53876V13.3509Z" stroke="#F4F4FF" stroke-width="0.4"/>
<path fill-rule="evenodd" clip-rule="evenodd" d="M6.76615 1H8.21919C9.42147 1 10.3987 1.97822 10.3987 3.17946V3.88947H14.0313C14.442 3.88947 14.7743 4.22177 14.7743 4.63251C14.7743 5.04324 14.441 5.37554 14.0313 5.37554H13.2718C13.3316 5.63558 13.3378 5.90701 13.2821 6.17532L12.2728 15.1847C12.0499 16.2652 11.1459 17 10.1118 17H4.87449C3.84148 17 2.93642 16.2652 2.72486 15.2539L1.69288 6.10629C1.64231 5.87512 1.6516 5.62332 1.71146 5.37565H0.953972C0.543236 5.37565 0.210938 5.04335 0.210938 4.63261C0.210938 4.22188 0.544266 3.88958 0.953972 3.88958H4.58658V3.17957C4.58658 1.97729 5.56387 1 6.76615 1ZM6.76615 2.45304C6.36574 2.45304 6.03963 2.77916 6.03963 3.17957V3.88958H8.94571V3.17957C8.94571 2.77916 8.6196 2.45304 8.21919 2.45304H6.76615ZM11.8168 5.9412C11.8581 5.72653 11.8003 5.61714 11.7467 5.55109C11.6548 5.43964 11.5156 5.37579 11.3629 5.37682H3.6229C3.46914 5.37682 3.32982 5.4408 3.23901 5.55226C3.18534 5.61829 3.12858 5.72768 3.15851 5.87216L4.19049 15.0197C4.24827 15.2777 4.54033 15.5151 4.87469 15.5151H10.112C10.4463 15.5151 10.7384 15.2777 10.8075 14.9506L11.8168 5.9412Z" stroke="#F4F4FF" stroke-width="0.4"/>
</svg>
