<svg width="13" height="16" viewBox="0 0 13 16" fill="none" xmlns="http://www.w3.org/2000/svg">
<path d="M9.07164 0.5C8.93466 0.50067 8.80414 0.556257 8.70722 0.656049L1.82511 7.89991C1.72949 8.00104 1.71045 8 1.67585 8.27897L-6.44496e-05 12.4622C-0.000710541 12.7582 0.229954 12.9987 0.514906 13L4.8095 11.4663C4.94712 11.4663 5.07894 11.4093 5.17585 11.3082L12.058 4.06553C12.1555 3.96507 12.2104 3.82845 12.2104 3.6858C12.2104 3.54314 12.1555 3.40652 12.058 3.30607L9.43548 0.656584C9.33856 0.556794 9.20797 0.50067 9.07164 0.5ZM9.0697 1.79124L10.9602 3.6853L4.59569 10.3941L1.55311 11.3082L2.71045 8.5L9.0697 1.79124ZM4.01489 14.4271C3.87791 14.4278 3.74675 14.4854 3.64983 14.5858C3.55356 14.6869 3.49928 14.8236 3.49993 14.9655C3.50058 15.2602 3.73059 15.4993 4.0149 15.5H11.3791C11.6641 15.4993 11.8947 15.2609 11.8947 14.9655C11.8954 14.8229 11.8418 14.6863 11.7448 14.5858C11.6479 14.4847 11.5161 14.4278 11.3791 14.4278L4.01489 14.4271Z" fill="#0E102D"/>
</svg>
