<svg width="27" height="14" viewBox="0 0 27 14" fill="none" xmlns="http://www.w3.org/2000/svg">
<path d="M11.6168 9.65276C11.3113 9.65388 11.0092 9.71414 10.7286 9.82993C10.448 9.94572 10.1947 10.1146 9.98391 10.3266L4.45462 7.67477C4.59064 7.27949 4.59064 6.85281 4.45462 6.45754L9.99298 3.7579C10.3897 4.15856 10.9276 4.40354 11.5023 4.44523C12.077 4.48692 12.6473 4.32234 13.1024 3.98348C13.5575 3.64462 13.8649 3.15569 13.9648 2.61172C14.0647 2.06775 13.9501 1.5076 13.6431 1.04015C13.3361 0.572704 12.8587 0.231346 12.3038 0.0824275C11.7488 -0.0664905 11.1559 -0.0123291 10.6403 0.234385C10.1246 0.481098 9.72314 0.902739 9.51381 1.41735C9.30449 1.93197 9.30229 2.50279 9.50764 3.01887L4.02371 5.69242C3.72753 5.34527 3.32658 5.09441 2.87581 4.97423C2.42504 4.85404 1.94651 4.87042 1.50583 5.02111C1.06515 5.1718 0.683886 5.44943 0.414299 5.81594C0.144712 6.18245 0 6.6199 0 7.06833C0 7.51675 0.144712 7.9542 0.414299 8.32071C0.683886 8.68722 1.06515 8.96485 1.50583 9.11554C1.94651 9.26623 2.42504 9.28261 2.87581 9.16242C3.32658 9.04224 3.72753 8.79138 4.02371 8.44423L9.49403 11.083C9.4016 11.3209 9.35399 11.5726 9.35342 11.8264C9.35342 12.2563 9.48643 12.6765 9.73564 13.034C9.98484 13.3914 10.3391 13.67 10.7535 13.8345C11.1679 13.9991 11.6239 14.0421 12.0638 13.9582C12.5038 13.8744 12.9079 13.6673 13.2251 13.3634C13.5422 13.0594 13.7583 12.6721 13.8458 12.2504C13.9333 11.8288 13.8884 11.3917 13.7167 10.9946C13.545 10.5974 13.2544 10.2579 12.8814 10.0191C12.5084 9.78024 12.0699 9.65276 11.6214 9.65276H11.6168Z" fill="#0E102D"/>
<line x1="26.75" y1="13" x2="26.75" y2="-1.09279e-08" stroke="#8695A2" stroke-width="0.5"/>
</svg>
