<svg width="30" height="16" viewBox="0 0 30 16" fill="none" xmlns="http://www.w3.org/2000/svg">
<path d="M14.3502 3.62591H10.1704L7.28457 1.08548C7.22264 1.03033 7.14376 1 7.06229 1H2.7542C1.78619 1.00138 1.00134 1.83069 1 2.85445V12.21C1.00261 12.9511 1.28291 13.6612 1.77963 14.1845C2.27635 14.707 2.94842 15.0007 3.64915 15H14.3502C15.0509 15.0007 15.7237 14.707 16.2204 14.1845C16.7171 13.6612 16.9974 12.9512 17 12.21V6.42817C16.9987 5.68503 16.7197 4.9729 16.223 4.44754C15.7263 3.92217 15.053 3.62729 14.3502 3.62591ZM16.3045 12.2101C16.2999 13.3475 15.4258 14.2664 14.3502 14.2645H3.64916C2.57425 14.2665 1.70005 13.3476 1.69554 12.2101V2.85452C1.69619 2.23684 2.16944 1.73636 2.75417 1.73567H6.93643L9.82156 4.27663C9.88413 4.33109 9.96301 4.36142 10.0445 4.36142H14.3508C15.4296 4.3628 16.3031 5.28726 16.3045 6.42818L16.3045 12.2101Z" fill="#0E102D" stroke="#0E102D" stroke-width="0.3"/>
<path d="M9.68783 8.55491L9.74932 8.75H9.54476H8.49929H5.36721C5.32614 8.75 5.27277 8.77576 5.22287 8.83595C5.17233 8.89691 5.15 8.96426 5.15 9.00024C5.15 9.03604 5.17223 9.10331 5.22261 9.1642C5.27234 9.22431 5.32551 9.25 5.3665 9.25H8.49929H9.54407H9.74839L9.68719 9.44493L9.33953 10.5522L9.32557 10.5967L9.28884 10.6254C9.24882 10.6567 9.23843 10.6889 9.23843 10.7114C9.23843 10.7339 9.24882 10.7661 9.28884 10.7974L9.28911 10.7976C9.37784 10.8673 9.53346 10.8676 9.62332 10.7975C9.62337 10.7975 9.62342 10.7974 9.62348 10.7974L11.7998 9.08685C11.7999 9.08679 11.8 9.08672 11.8 9.08666C11.8395 9.05525 11.85 9.02291 11.85 9C11.85 8.97712 11.8395 8.94499 11.8002 8.91387C11.8002 8.91384 11.8001 8.91381 11.8001 8.91377L9.6232 7.20281L9.71566 7.08518L9.6232 7.20281C9.53348 7.13229 9.37806 7.13257 9.28939 7.2026L9.28884 7.20303C9.24873 7.2344 9.23843 7.2665 9.23843 7.28882C9.23843 7.31119 9.24878 7.34354 9.28911 7.37524L9.19722 7.49216L9.3388 7.44754L9.68783 8.55491Z" fill="#0E102D" stroke="#0E102D" stroke-width="0.3"/>
<line x1="29.75" y1="15" x2="29.75" y2="2" stroke="#8695A2" stroke-width="0.5"/>
</svg>
