<svg width="71" height="25" viewBox="0 0 71 25" fill="none" xmlns="http://www.w3.org/2000/svg">
<path d="M67.8179 19.3474L64.7861 24.636L67.8179 22.4607V19.3474Z" fill="#C8102E"/>
<path d="M67.8174 22.4607L70.8627 24.636L67.8174 19.3474V22.4607Z" fill="#E84E0F"/>
<path d="M64.7861 24.6362H70.8632L67.8179 22.4609L64.7861 24.6362Z" fill="#8F1D64"/>
<path fill-rule="evenodd" clip-rule="evenodd" d="M60.4625 2.19027C60.4625 1.33377 61.2646 0.830748 62.1619 0.830748C62.7018 0.801324 63.2386 0.929613 63.707 1.19998C64.1753 1.47034 64.5548 1.8711 64.7993 2.35341V0.613224C64.0149 0.19235 63.1332 -0.013997 62.2434 0.0150349C61.8631 -0.0251253 61.4786 0.0153897 61.115 0.133934C60.7514 0.252478 60.417 0.446386 60.1334 0.702992C59.8498 0.959598 59.6236 1.27313 59.4695 1.62312C59.3153 1.9731 59.2368 2.35166 59.2389 2.73408C59.2419 3.14699 59.3263 3.55525 59.4872 3.9355C59.6482 4.31575 59.8826 4.66053 60.177 4.9501C60.5644 5.34662 61.1199 5.69578 61.6872 6.05238C62.8121 6.75948 63.9836 7.49584 63.9836 8.68878C63.9836 9.47731 63.3039 10.1707 62.0531 10.1707C61.4747 10.1949 60.9006 10.0609 60.3927 9.783C59.8848 9.50509 59.4623 9.09386 59.1709 8.59362V10.4426C60.0548 10.8546 61.0242 11.0503 61.9987 11.0136C62.4149 11.0599 62.8363 11.0172 63.2347 10.8881C63.6331 10.759 63.9994 10.5465 64.3094 10.2649C64.6193 9.98324 64.8658 9.63883 65.0323 9.25456C65.1988 8.87029 65.2816 8.45496 65.2752 8.03621C65.282 7.64765 65.2054 7.26214 65.0506 6.90567C64.8958 6.5492 64.6664 6.23006 64.3779 5.96974C63.838 5.40468 63.1597 4.98378 62.5199 4.58685C61.4357 3.91418 60.4625 3.31033 60.4625 2.19027ZM19.9487 0.286983V10.7009H18.4668V6.02416H13.559V10.7009H12.1043V1.26584L11.5197 0.286983H13.559V4.84138H18.4668V0.286983H19.9487ZM57.186 0.286983L56.8733 1.29303H52.1014V4.92295H56.0848L55.7041 5.99697H52.1014V9.68128H57.2948V10.7009H50.6059V1.26584L50.0349 0.286983H57.186ZM9.26287 10.0212C8.15386 10.7169 6.85925 11.0584 5.55137 11.0001C4.83295 11.0313 4.11566 10.9165 3.4429 10.6626C2.77013 10.4086 2.15589 10.0208 1.63735 9.52256C1.1188 9.02435 0.70673 8.42611 0.426072 7.76404C0.145415 7.10197 0.0020068 6.38984 0.00452613 5.67074C-0.0257262 4.93528 0.0959274 4.20148 0.361895 3.51513C0.627862 2.82878 1.03244 2.20461 1.55037 1.68158C2.0683 1.15855 2.68847 0.747874 3.37218 0.47519C4.05589 0.202507 4.78846 0.0736648 5.52418 0.0967055C6.83001 0.04031 8.12278 0.376524 9.23568 1.06197V3.06046C8.89755 2.39622 8.37563 1.84315 7.73207 1.46714C7.08851 1.09113 6.35044 0.908017 5.60575 0.939609C3.33535 0.939609 1.63595 2.50306 1.64955 5.31727C1.59552 5.90363 1.65851 6.49488 1.83487 7.05669C2.01123 7.61851 2.29745 8.13968 2.6769 8.58997C3.05635 9.04025 3.52148 9.41066 4.04527 9.6797C4.56906 9.94873 5.14108 10.111 5.72811 10.1572C7.035 10.1624 8.29632 9.67728 9.26287 8.79764V10.0212ZM44.0802 0.286983H42.0681L42.6119 1.26584V10.7009H48.757L49.0833 9.68128H44.0802V0.286983ZM27.766 6.39116L26.2433 1.83676L24.707 6.39116H27.766ZM24.3807 7.35642L23.2795 10.7008V10.6872H22.2463L25.414 1.26576L24.8566 0.314096H27.3037L30.7705 10.7008H29.1935L28.0786 7.35642H24.3807ZM34.5228 5.45314V1.22503H35.4744C37.0243 1.22503 37.84 1.864 37.84 3.26431C37.8617 3.57286 37.8138 3.88234 37.7 4.16993C37.5861 4.45752 37.4091 4.71588 37.1821 4.92595C36.955 5.13603 36.6837 5.29245 36.3882 5.38369C36.0926 5.47494 35.7804 5.49867 35.4744 5.45314H34.5228ZM40.124 10.7281L37.269 6.17368C37.8824 5.96563 38.4135 5.56741 38.7852 5.03687C39.1568 4.50633 39.3496 3.87112 39.3355 3.22352C39.3194 2.80132 39.2164 2.38697 39.033 2.00636C38.8496 1.62575 38.5896 1.28707 38.2693 1.01147C37.9491 0.735879 37.5754 0.529296 37.1717 0.404634C36.768 0.279973 36.343 0.239912 35.9231 0.286955H32.5379L33.0681 1.26581V10.6873H34.55V6.35042H35.9095L38.6285 10.7009L40.124 10.7281ZM23.0212 20.4078L21.3898 15.7583L19.8264 20.4078H23.0212ZM19.4865 21.3051L18.3445 24.636H17.2569L20.5197 15.2009L19.9487 14.222H22.3823L25.9986 24.636H24.3807L23.2931 21.3051H19.4865ZM8.35199 16.1389L9.30365 15.2417H12.0499V24.636H13.559V15.2417H17.0121L17.352 14.222H8.35199V16.1389ZM0.412383 23.1269C1.25404 23.7811 2.29696 24.1223 3.36255 24.0922H3.37614C4.69488 24.0922 5.34745 23.3852 5.34745 22.6239C5.34745 21.4126 4.12735 20.6712 2.95398 19.9581C2.37571 19.6066 1.80878 19.2621 1.40483 18.8716C1.10433 18.5852 0.864135 18.2417 0.698367 17.8611C0.532599 17.4805 0.444609 17.0706 0.439574 16.6556C0.447554 16.2723 0.53649 15.895 0.700547 15.5486C0.864603 15.2021 1.10007 14.8942 1.3915 14.6452C1.68293 14.3961 2.02373 14.2115 2.39154 14.1034C2.75935 13.9953 3.14585 13.9663 3.52569 14.0181C4.44041 13.9838 5.34859 14.1851 6.16316 14.6027V16.5604C5.94171 16.0245 5.56374 15.5678 5.07865 15.2501C4.59355 14.9323 4.0239 14.7683 3.44412 14.7794C2.53324 14.7794 1.70393 15.2825 1.70393 16.139C1.70393 17.2739 2.7216 17.8679 3.84922 18.526C4.51811 18.9164 5.22569 19.3294 5.78249 19.8912C6.07951 20.152 6.31608 20.4745 6.47574 20.8361C6.63541 21.1976 6.71431 21.5897 6.70697 21.9849C6.70653 22.4131 6.61497 22.8364 6.43837 23.2265C6.26177 23.6166 6.00418 23.9647 5.6827 24.2476C5.36122 24.5305 4.98322 24.7417 4.57382 24.8673C4.16441 24.9929 3.73297 25.0299 3.30816 24.9758C2.31165 25.0131 1.32016 24.8176 0.412383 24.4049V23.1269ZM58.9398 14.222H57.2404L60.4896 19.7689V24.636H61.9851V19.7689L65.2072 14.222H63.1135L63.5622 15.2281L61.6045 18.7628L58.9398 14.222ZM37.0515 14.222V24.636H36.4941L29.4925 16.1661V24.636H28.4729V15.1737L27.5892 14.222H29.8732L36.0047 21.7402V14.222H37.0515ZM55.7041 23.6435H50.3748V19.932H54.0863L54.467 18.8444H50.3748V15.2417H55.2419L55.5954 14.222H48.2404L48.8521 15.2009V24.636H55.7041V23.6435ZM47.2343 23.6435L46.908 24.636H40.5862V15.2009L40.0152 14.222H42.1089V23.6435H47.2343Z" fill="white"/>
</svg>
