<svg width="23" height="21" viewBox="0 0 23 21" fill="none" xmlns="http://www.w3.org/2000/svg">
<g clip-path="url(#clip0_458_1078)">
<path d="M20.125 5.90625H18.0625V1.96875H5.6875V5.90625H3.625C3.26033 5.90625 2.91059 6.04453 2.65273 6.29067C2.39487 6.53681 2.25 6.87065 2.25 7.21875V13.7812C2.25 14.1293 2.39487 14.4632 2.65273 14.7093C2.91059 14.9555 3.26033 15.0938 3.625 15.0938H5.6875V19.0312H18.0625V15.0938H20.125C20.4897 15.0938 20.8394 14.9555 21.0973 14.7093C21.3551 14.4632 21.5 14.1293 21.5 13.7812V7.21875C21.5 6.87065 21.3551 6.53681 21.0973 6.29067C20.8394 6.04453 20.4897 5.90625 20.125 5.90625ZM7.0625 3.28125H16.6875V5.90625H7.0625V3.28125ZM16.6875 17.7188H7.0625V11.1562H16.6875V17.7188ZM20.125 13.7812H18.0625V9.84375H5.6875V13.7812H3.625V7.21875H20.125V13.7812Z" fill="#D7DBF0"/>
</g>
<defs>
<clipPath id="clip0_458_1078">
<rect width="22" height="21" fill="white" transform="translate(0.875)"/>
</clipPath>
</defs>
</svg>
