<svg width="17" height="19" viewBox="0 0 17 19" fill="none" xmlns="http://www.w3.org/2000/svg">
<path fill-rule="evenodd" clip-rule="evenodd" d="M12.7957 0.92075L16.4543 4.57925C16.7242 4.84925 16.875 5.21375 16.875 5.59625V17.78C16.875 18.1782 16.5532 18.5 16.155 18.5H0.72C0.32175 18.5 0 18.1782 0 17.78V1.22C0 0.82175 0.32175 0.5 0.72 0.5H12.195V0.56075C12.42 0.62825 12.627 0.752 12.7957 0.92075ZM10.755 2.12H6.12V4.46H10.755V2.12ZM1.62 2.12V16.88H15.255V5.6705L12.195 2.6105V5.18C12.195 5.57825 11.8733 5.9 11.475 5.9H5.4C5.00175 5.9 4.68 5.57825 4.68 5.18V2.12H1.62ZM5.625 11.1875C5.625 9.63477 6.88477 8.375 8.4375 8.375C9.99023 8.375 11.25 9.63477 11.25 11.1875C11.25 12.7402 9.99023 14 8.4375 14C6.88477 14 5.625 12.7402 5.625 11.1875ZM6.75 11.1875C6.75 10.2559 7.50586 9.5 8.4375 9.5C9.36914 9.5 10.125 10.2559 10.125 11.1875C10.125 12.1191 9.36914 12.875 8.4375 12.875C7.50586 12.875 6.75 12.1191 6.75 11.1875Z" fill="#D7DBF0"/>
</svg>
