<svg width="16" height="17" viewBox="0 0 16 17" fill="none" xmlns="http://www.w3.org/2000/svg">
<path d="M16 7.68541V9.31459C15.9955 9.46367 15.9439 9.60679 15.8535 9.7209C15.7631 9.83501 15.6392 9.91347 15.5017 9.94363L14.2433 10.1744C14.2032 10.182 14.1625 10.1843 14.1219 10.1812C13.9744 10.7883 13.7472 11.3702 13.4469 11.91C13.4782 11.9378 13.5061 11.9697 13.5299 12.005L14.2656 13.1137C14.3432 13.2384 14.3789 13.3872 14.367 13.5361C14.355 13.6849 14.296 13.8252 14.1996 13.934L13.1137 15.088C13.0112 15.19 12.8794 15.2522 12.7395 15.2648C12.5996 15.2773 12.4599 15.2393 12.3428 15.157L11.2994 14.3763C11.2658 14.3512 11.2354 14.3216 11.2089 14.2881C10.6959 14.6098 10.1424 14.8525 9.56508 15.0088C9.57599 15.0743 9.57599 15.1413 9.56508 15.2068L9.37131 16.3981C9.33905 16.5644 9.25498 16.7142 9.13269 16.8234C9.0104 16.9326 8.85703 16.9948 8.69736 17H7.30263C7.14297 16.9948 6.9896 16.9326 6.86731 16.8234C6.74502 16.7142 6.66095 16.5644 6.62869 16.3981L6.43492 15.2068C6.42386 15.1413 6.42386 15.0743 6.43492 15.0088C5.85761 14.8525 5.30413 14.6098 4.79106 14.2881C4.76456 14.3212 4.73414 14.3505 4.70056 14.3752L3.65717 15.157C3.5399 15.2394 3.39985 15.2774 3.25974 15.2647C3.11963 15.2519 2.98768 15.1893 2.88528 15.0868L1.79931 13.9328C1.70361 13.8241 1.64515 13.6842 1.63337 13.5358C1.62159 13.3874 1.65716 13.2392 1.73436 13.1149L2.47006 12.0061C2.49345 11.9705 2.52099 11.9382 2.55204 11.91C2.25213 11.3702 2.02526 10.7882 1.87809 10.1812C1.83753 10.1843 1.79676 10.182 1.75672 10.1744L0.49827 9.94363C0.360721 9.91366 0.236708 9.83525 0.146287 9.7211C0.0558667 9.60695 0.00432584 9.46372 0 9.31459V7.68541C0.00432584 7.53627 0.0558667 7.39305 0.146287 7.2789C0.236708 7.16475 0.360721 7.08634 0.49827 7.05637L1.75672 6.82557C1.79677 6.81805 1.83758 6.81615 1.87809 6.81991C2.0254 6.21296 2.25227 5.63102 2.55204 5.09118C2.52109 5.06283 2.49355 5.03053 2.47006 4.99501L1.73436 3.88626C1.65708 3.7618 1.62146 3.61333 1.63324 3.46475C1.64502 3.31616 1.70352 3.17611 1.79931 3.06715L2.88528 1.91315C2.98777 1.81091 3.1197 1.74838 3.25976 1.73565C3.39983 1.72293 3.53984 1.76075 3.65717 1.84301L4.70056 2.62478C4.73421 2.64989 4.76463 2.67956 4.79106 2.71303C5.29896 2.39397 5.84661 2.15251 6.41789 1.99574C6.4143 1.95269 6.41609 1.90932 6.42321 1.86676L6.6404 0.529482C6.66861 0.383317 6.74239 0.251535 6.84982 0.155451C6.95724 0.0593665 7.09202 0.00459682 7.23237 0H8.76763C8.90798 0.00459682 9.04276 0.0593665 9.15018 0.155451C9.25761 0.251535 9.33139 0.383317 9.3596 0.529482L9.57679 1.86676C9.58373 1.90934 9.58552 1.95268 9.58211 1.99574C10.1534 2.15258 10.701 2.39404 11.2089 2.71303C11.2354 2.67956 11.2658 2.64989 11.2994 2.62478L12.3428 1.84301C12.46 1.76083 12.5998 1.72306 12.7397 1.73579C12.8796 1.74852 13.0113 1.81101 13.1137 1.91315L14.1996 3.06715C14.2958 3.17588 14.3546 3.31588 14.3665 3.46452C14.3785 3.61316 14.343 3.76175 14.2656 3.88626L13.5299 4.99501C13.5061 5.03059 13.4782 5.06289 13.4469 5.09118C13.7472 5.63089 13.9744 6.21285 14.1219 6.81991C14.1624 6.81611 14.2032 6.81802 14.2433 6.82557L15.5017 7.05637C15.6392 7.08653 15.7631 7.16499 15.8535 7.2791C15.9439 7.39321 15.9955 7.53633 16 7.68541ZM10.7245 8.5C10.7243 7.92748 10.5644 7.36789 10.2649 6.89195C9.96545 6.41601 9.53993 6.0451 9.04213 5.82612C8.54434 5.60713 7.99662 5.54989 7.46821 5.66163C6.93981 5.77338 6.45444 6.0491 6.07348 6.45393C5.69251 6.85876 5.43305 7.37453 5.32789 7.93603C5.22273 8.49754 5.27659 9.07957 5.48267 9.60855C5.68875 10.1375 6.0378 10.5897 6.48568 10.9079C6.93356 11.2261 7.46017 11.3961 7.99893 11.3963C8.3569 11.3965 8.71139 11.3216 9.04213 11.1761C9.37288 11.0306 9.6734 10.8173 9.92652 10.5483C10.1796 10.2794 10.3804 9.96001 10.5173 9.60855C10.6543 9.25708 10.7247 8.88039 10.7245 8.5Z" fill="#D7DBF0"/>
</svg>
