<svg width="16" height="18" viewBox="0 0 16 18" fill="none" xmlns="http://www.w3.org/2000/svg">
<path d="M13.2764 12.2212C12.9272 12.2226 12.582 12.2957 12.2613 12.4363C11.9406 12.5769 11.6511 12.7821 11.4102 13.0394L5.09099 9.81936C5.24644 9.33939 5.24644 8.82127 5.09099 8.3413L11.4206 5.06317C11.8739 5.54968 12.4887 5.84715 13.1455 5.89777C13.8023 5.9484 14.454 5.74855 14.9742 5.33708C15.4943 4.92561 15.8456 4.33191 15.9598 3.67137C16.074 3.01084 15.9429 2.33066 15.5921 1.76304C15.2412 1.19543 14.6957 0.78092 14.0614 0.600091C13.4272 0.419262 12.7496 0.485029 12.1603 0.78461C11.571 1.08419 11.1122 1.59618 10.8729 2.22107C10.6337 2.84596 10.6312 3.5391 10.8659 4.16577L4.59852 7.41223C4.26004 6.99069 3.80181 6.68607 3.28664 6.54013C2.77147 6.3942 2.22459 6.41408 1.72095 6.59706C1.21732 6.78004 0.781583 7.11716 0.473484 7.56221C0.165385 8.00726 0 8.53845 0 9.08297C0 9.62749 0.165385 10.1587 0.473484 10.6037C0.781583 11.0488 1.21732 11.3859 1.72095 11.5689C2.22459 11.7519 2.77147 11.7717 3.28664 11.6258C3.80181 11.4799 4.26004 11.1752 4.59852 10.7537L10.8503 13.9579C10.7447 14.2468 10.6903 14.5524 10.6896 14.8606C10.6896 15.3826 10.8416 15.8929 11.1264 16.327C11.4113 16.761 11.8161 17.0993 12.2897 17.2991C12.7633 17.4989 13.2845 17.5511 13.7872 17.4493C14.29 17.3474 14.7519 17.0961 15.1144 16.7269C15.4769 16.3578 15.7237 15.8875 15.8237 15.3755C15.9237 14.8635 15.8724 14.3328 15.6762 13.8505C15.4801 13.3683 15.1478 12.956 14.7216 12.666C14.2953 12.376 13.7942 12.2212 13.2816 12.2212H13.2764Z" fill="#D7DBF0"/>
</svg>
