<svg width="18" height="13" viewBox="0 0 18 13" fill="none" xmlns="http://www.w3.org/2000/svg">
<path fill-rule="evenodd" clip-rule="evenodd" d="M9 0.5C12.9078 0.5 16.2968 2.82941 17.9222 6.18235C18.0259 6.39412 18.0259 6.60588 17.9222 6.81765C16.2968 10.1706 12.9078 12.5 9 12.5C5.09222 12.5 1.70317 10.1706 0.0778098 6.81765C-0.0259366 6.64118 -0.0259366 6.39412 0.0778098 6.18235C1.70317 2.82941 5.09222 0.5 9 0.5ZM5.19597 6.5C5.19597 8.65294 6.89049 10.3824 9 10.3824C11.1095 10.3824 12.804 8.65294 12.804 6.5C12.804 4.34706 11.1095 2.61765 9 2.61765C6.89049 2.61765 5.19597 4.34706 5.19597 6.5ZM7.5 6.5C7.5 5.66429 8.16429 5 9 5C9.83571 5 10.5 5.66429 10.5 6.5C10.5 7.33571 9.83571 8 9 8C8.16429 8 7.5 7.33571 7.5 6.5Z" fill="#D7DBF0"/>
</svg>
