<svg width="13" height="14" viewBox="0 0 13 14" fill="none" xmlns="http://www.w3.org/2000/svg">
<path fill-rule="evenodd" clip-rule="evenodd" d="M1.24335 0H8.45477V1.26228H1.24335V9.84582H0V1.26228C0 0.589066 0.580229 0 1.24335 0ZM4.12546 2.8919H11C11.6631 2.8919 12.1605 3.48096 12.2433 4.15418V12.7377C12.2433 13.4109 11.6631 14 11 14H4.12546C3.46234 14 2.88211 13.4109 2.88211 12.7377V4.15418C2.88211 3.48096 3.46234 2.8919 4.12546 2.8919ZM3.94268 12.808H11.1129V4.02993H3.94268V12.808ZM7.08344 6.41667C7.08344 6.18645 7.26989 6 7.5001 6C7.73032 6 7.91677 6.18645 7.91677 6.41667V8.08313H9.58333C9.81355 8.08313 10 8.26958 10 8.4998C10 8.73001 9.81355 8.91646 9.58333 8.91646H7.91677V10.5833C7.91677 10.8135 7.73032 11 7.5001 11C7.26989 11 7.08344 10.8135 7.08344 10.5833V8.91646H5.41667C5.18645 8.91646 5 8.73001 5 8.4998C5 8.26958 5.18645 8.08313 5.41667 8.08313H7.08344V6.41667Z" fill="#7782B9"/>
</svg>
