<svg width="13" height="13" viewBox="0 0 13 13" fill="none" xmlns="http://www.w3.org/2000/svg">
<path d="M0.529541 0.694092C0.844017 0.379616 1.35388 0.379616 1.66836 0.694092L11.9177 10.9435C12.2322 11.2579 12.2322 11.7678 11.9177 12.0823C11.6032 12.3968 11.0934 12.3968 10.7789 12.0823L0.529541 1.83291C0.215065 1.51843 0.215065 1.00857 0.529541 0.694092Z" fill="#262626"/>
<path d="M0.529541 12.0823C0.215065 11.7678 0.215065 11.2579 0.529541 10.9435L10.7789 0.694091C11.0934 0.379615 11.6032 0.379615 11.9177 0.694091C12.2322 1.00857 12.2322 1.51843 11.9177 1.83291L1.66836 12.0823C1.35388 12.3968 0.844017 12.3968 0.529541 12.0823Z" fill="#262626"/>
</svg>
