<svg width="16" height="16" viewBox="0 0 16 16" fill="none" xmlns="http://www.w3.org/2000/svg">
<g clip-path="url(#clip0_101_8297)">
<path fill-rule="evenodd" clip-rule="evenodd" d="M15.397 11.03L14.878 10.618C14.7358 10.5057 14.621 10.3625 14.5422 10.1993C14.4634 10.0362 14.4226 9.85721 14.423 9.676V6.225C14.4212 4.5746 13.7647 2.99232 12.5977 1.82531C11.4307 0.658294 9.84843 0.00185275 8.19802 0C6.54779 0.00211736 4.96577 0.658675 3.79898 1.82566C2.63218 2.99264 1.97588 4.57477 1.97402 6.225V9.675C1.97402 10.045 1.80802 10.388 1.51902 10.618L0.999023 11.03V13.586H5.70502C5.73886 14.2245 6.01633 14.8256 6.48024 15.2656C6.94415 15.7056 7.55916 15.9508 8.19852 15.9508C8.83789 15.9508 9.4529 15.7056 9.91681 15.2656C10.3807 14.8256 10.6582 14.2245 10.692 13.586H15.397V11.03Z" fill="#1B1944"/>
</g>
<defs>
<clipPath id="clip0_101_8297">
<rect width="16" height="16" fill="white"/>
</clipPath>
</defs>
</svg>
