<svg width="16" height="16" viewBox="0 0 16 16" fill="none" xmlns="http://www.w3.org/2000/svg">
<path fill-rule="evenodd" clip-rule="evenodd" d="M6.50002 5.94483e-08C7.70035 -0.000162253 8.87729 0.332053 9.90037 0.959822C10.9235 1.58759 11.7527 2.48639 12.2963 3.55661C12.8398 4.62682 13.0764 5.82664 12.9798 7.02308C12.8832 8.21952 12.4572 9.36585 11.749 10.335L15.657 14.243C15.7525 14.3352 15.8287 14.4456 15.8811 14.5676C15.9335 14.6896 15.9611 14.8208 15.9623 14.9536C15.9634 15.0864 15.9381 15.2181 15.8878 15.341C15.8376 15.4639 15.7633 15.5755 15.6694 15.6694C15.5755 15.7633 15.4639 15.8375 15.341 15.8878C15.2181 15.9381 15.0864 15.9634 14.9536 15.9623C14.8208 15.9611 14.6896 15.9335 14.5676 15.8811C14.4456 15.8287 14.3353 15.7525 14.243 15.657L10.335 11.749C9.50616 12.3544 8.54571 12.7549 7.5323 12.9177C6.51889 13.0805 5.48132 13.001 4.50454 12.6857C3.52776 12.3704 2.63953 11.8283 1.91257 11.1037C1.1856 10.3791 0.64056 9.49268 0.322068 8.51694C0.00357485 7.5412 -0.0793176 6.5039 0.0801757 5.48996C0.239669 4.47603 0.637014 3.51427 1.23968 2.68343C1.84235 1.85259 2.63321 1.17628 3.54753 0.709862C4.46184 0.243449 5.47361 0.000190057 6.50002 5.94483e-08ZM6.50002 2C5.90907 2 5.32391 2.1164 4.77794 2.34254C4.23198 2.56869 3.7359 2.90016 3.31804 3.31802C2.90017 3.73588 2.56871 4.23196 2.34256 4.77792C2.11641 5.32389 2.00002 5.90905 2.00002 6.5C2.00002 7.09095 2.11641 7.67611 2.34256 8.22208C2.56871 8.76804 2.90017 9.26412 3.31804 9.68198C3.7359 10.0998 4.23198 10.4313 4.77794 10.6575C5.32391 10.8836 5.90907 11 6.50002 11C7.69349 11 8.83808 10.5259 9.682 9.68198C10.5259 8.83807 11 7.69347 11 6.5C11 5.30653 10.5259 4.16193 9.682 3.31802C8.83808 2.47411 7.69349 2 6.50002 2Z" fill="white"/>
</svg>
