<svg width="14" height="14" viewBox="0 0 14 14" fill="none" xmlns="http://www.w3.org/2000/svg">
<path d="M7.40638 10.8071C7.40638 11.1665 7.10975 11.4572 6.74311 11.4572C6.37739 11.4572 6.07984 11.1665 6.07984 10.8071V5.72141C6.07984 5.36292 6.37739 5.07126 6.74311 5.07126C7.10975 5.07126 7.40638 5.36292 7.40638 5.72141V10.8071Z" fill="#7782B9"/>
<path fill-rule="evenodd" clip-rule="evenodd" d="M6.09467 0H7.39173C8.46494 0 9.33725 0.855939 9.33725 1.90703V2.52829H12.5799C12.9465 2.52829 13.2432 2.81905 13.2432 3.17844C13.2432 3.53784 12.9456 3.8286 12.5799 3.8286H11.9019C11.9553 4.05613 11.9608 4.29363 11.9111 4.52841L11.0102 12.4116C10.8112 13.3571 10.0042 14 9.08115 14H4.40608C3.48397 14 2.67606 13.3571 2.48721 12.4721L1.56602 4.468C1.52088 4.26573 1.52917 4.04541 1.5826 3.82869H0.906433C0.53979 3.82869 0.243164 3.53793 0.243164 3.17853C0.243164 2.81914 0.540709 2.52838 0.906433 2.52838H4.14908V1.90712C4.14908 0.85513 5.02146 0 6.09467 0ZM6.09467 1.27141C5.73725 1.27141 5.44614 1.55677 5.44614 1.90712V2.52838H8.04026V1.90712C8.04026 1.55677 7.74915 1.27141 7.39173 1.27141H6.09467ZM10.6032 4.32355C10.64 4.13571 10.5884 4.04 10.5405 3.98221C10.4585 3.88468 10.3343 3.82881 10.1979 3.82972H3.28885C3.1516 3.82972 3.02723 3.8857 2.94617 3.98322C2.89826 4.04101 2.8476 4.13672 2.87431 4.26314L3.79551 12.2673C3.84708 12.493 4.10779 12.7007 4.40626 12.7007H9.08133C9.37979 12.7007 9.6405 12.493 9.70222 12.2068L10.6032 4.32355Z" fill="#7782B9"/>
</svg>
