<svg width="16" height="20" viewBox="0 0 16 20" fill="none" xmlns="http://www.w3.org/2000/svg">
<path fill-rule="evenodd" clip-rule="evenodd" d="M15.1515 15.8824V5.95588L9.4697 0H2.52525C1.85551 0 1.21321 0.278886 0.739629 0.775306C0.266052 1.27173 0 1.94502 0 2.64706V13.2353V13.7299V17.3529C0 18.055 0.266052 18.7283 0.739629 19.2247C1.21321 19.7211 1.85551 20 2.52525 20H12.6263C13.296 20 13.9383 19.7211 14.4119 19.2247C14.8855 18.7283 15.1515 18.055 15.1515 17.3529V16.377V15.8824ZM13.8889 15.8824V5.95588H11.3636C10.8613 5.95588 10.3796 5.74672 10.0244 5.3744C9.66924 5.00209 9.4697 4.49712 9.4697 3.97059V1.32353H2.52525C2.19038 1.32353 1.86923 1.46297 1.63244 1.71118C1.39565 1.95939 1.26263 2.29604 1.26263 2.64706V13.2353V13.7299V17.3529C1.26263 17.704 1.39565 18.0406 1.63244 18.2888C1.86923 18.537 2.19038 18.6765 2.52525 18.6765H12.6263C12.9611 18.6765 13.2823 18.537 13.5191 18.2888C13.7559 18.0406 13.8889 17.704 13.8889 17.3529V16.377V15.8824ZM4.14645 8.14645C4.24021 8.05268 4.36739 8 4.5 8H10.5C10.6326 8 10.7598 8.05268 10.8536 8.14645C10.9473 8.24021 11 8.36739 11 8.5C11 8.63261 10.9473 8.75979 10.8536 8.85355C10.7598 8.94732 10.6326 9 10.5 9H4.5C4.36739 9 4.24021 8.94732 4.14645 8.85355C4.05268 8.75979 4 8.63261 4 8.5C4 8.36739 4.05268 8.24021 4.14645 8.14645ZM4.5 11C4.36739 11 4.24021 11.0527 4.14645 11.1464C4.05268 11.2402 4 11.3674 4 11.5C4 11.6326 4.05268 11.7598 4.14645 11.8536C4.24021 11.9473 4.36739 12 4.5 12H10.5C10.6326 12 10.7598 11.9473 10.8536 11.8536C10.9473 11.7598 11 11.6326 11 11.5C11 11.3674 10.9473 11.2402 10.8536 11.1464C10.7598 11.0527 10.6326 11 10.5 11H4.5ZM4.5 14C4.36739 14 4.24021 14.0527 4.14645 14.1464C4.05268 14.2402 4 14.3674 4 14.5C4 14.6326 4.05268 14.7598 4.14645 14.8536C4.24021 14.9473 4.36739 15 4.5 15H10.5C10.6326 15 10.7598 14.9473 10.8536 14.8536C10.9473 14.7598 11 14.6326 11 14.5C11 14.3674 10.9473 14.2402 10.8536 14.1464C10.7598 14.0527 10.6326 14 10.5 14H4.5Z" fill="white"/>
</svg>
