<svg width="14" height="14" viewBox="0 0 14 14" fill="none" xmlns="http://www.w3.org/2000/svg">
<path fill-rule="evenodd" clip-rule="evenodd" d="M6.99976 0C6.35516 0 5.83309 0.522069 5.83309 1.16667V5.83385H1.16667C0.522069 5.83385 0 6.35592 0 7.00052C0 7.64512 0.522069 8.16719 1.16667 8.16719H5.83309V12.8333C5.83309 13.4779 6.35516 14 6.99976 14C7.64436 14 8.16642 13.4779 8.16642 12.8333V8.16719H12.8333C13.4779 8.16719 14 7.64512 14 7.00052C14 6.35592 13.4779 5.83385 12.8333 5.83385H8.16642V1.16667C8.16642 0.522069 7.64436 0 6.99976 0Z" fill="#7782B9"/>
</svg>
