<svg width="1151" height="755" viewBox="0 0 1151 755" fill="none" xmlns="http://www.w3.org/2000/svg">
<path d="M0.5 0L0.500033 755M10.5 0L10.5 755M20.5 0L20.5 755M30.5 0L30.5 755M40.5 0L40.5 755M50.5 0L50.5 755M60.5 0L60.5 755M70.5 0L70.5 755M80.5 0L80.5 755M90.5 0L90.5 755M100.5 0L100.5 755M110.5 0L110.5 755M120.5 0L120.5 755M130.5 0L130.5 755M140.5 0L140.5 755M150.5 0L150.5 755M160.5 0L160.5 755M170.5 0L170.5 755M180.5 0L180.5 755M190.5 0L190.5 755M200.5 0L200.5 755M210.5 0L210.5 755M220.5 0L220.5 755M230.5 0L230.5 755M240.5 0L240.5 755M250.5 0L250.5 755M260.5 0L260.5 755M270.5 0L270.5 755M280.5 0L280.5 755M290.5 0L290.5 755M300.5 0L300.5 755M310.5 0L310.5 755M320.5 0L320.5 755M330.5 0L330.5 755M340.5 0L340.5 755M350.5 0L350.5 755M360.5 0L360.5 755M370.5 0L370.5 755M380.5 0L380.5 755M390.5 0L390.5 755M400.5 0L400.5 755M410.5 0L410.5 755M420.5 0L420.5 755M430.5 0L430.5 755M440.5 0L440.5 755M450.5 0L450.5 755M460.5 0L460.5 755M470.5 0L470.5 755M480.5 0L480.5 755M490.5 0L490.5 755M500.5 0L500.5 755M510.5 0L510.5 755M520.5 0L520.5 755M530.5 0L530.5 755M540.5 0L540.5 755M550.5 0L550.5 755M560.5 0L560.5 755M570.5 0L570.5 755M580.5 0L580.5 755M590.5 0L590.5 755M600.5 0L600.5 755M610.5 0L610.5 755M620.5 0L620.5 755M630.5 0L630.5 755M640.5 0L640.5 755M650.5 0L650.5 755M660.5 0L660.5 755M670.5 0L670.5 755M680.5 0L680.5 755M690.5 0L690.5 755M700.5 0L700.5 755M710.5 0L710.5 755M720.5 0L720.5 755M730.5 0L730.5 755M740.5 0L740.5 755M750.5 0L750.5 755M760.5 0L760.5 755M770.5 0L770.5 755M780.5 0L780.5 755M790.5 0L790.5 755M800.5 0L800.5 755M810.5 0L810.5 755M820.5 0L820.5 755M830.5 0L830.5 755M840.5 0L840.5 755M850.5 0L850.5 755M860.5 0L860.5 755M870.5 0L870.5 755M880.5 0L880.5 755M890.5 0L890.5 755M900.5 0L900.5 755M910.5 0L910.5 755M920.5 0L920.5 755M930.5 0L930.5 755M940.5 0L940.5 755M950.5 0L950.5 755M960.5 0L960.5 755M970.5 0L970.5 755M980.5 0L980.5 755M990.5 0L990.5 755M1000.5 0L1000.5 755M1010.5 0L1010.5 755M1020.5 0L1020.5 755M1030.5 0V755M1040.5 0V755M1050.5 0V755M1060.5 0V755M1070.5 0V755M1080.5 0V755M1090.5 0V755M1100.5 0V755M1110.5 0V755M1120.5 0V755M1130.5 0V755M1140.5 0V755M1150.5 0V755M1151 9L1 8.99998M1151 19L1 19M1151 29L0.999999 29M1151 39L0.999999 39M1151 49L0.999998 49M1151 59L0.999998 59M1151 69L0.999997 69M1151 79L0.999997 79M1151 89L0.999997 89M1151 99L0.999996 99M1151 109L0.999996 109M1151 119L0.999995 119M1151 129L0.999995 129M1151 139L0.999994 139M1151 149L0.999994 149M1151 159L0.999993 159M1151 169L0.999993 169M1151 179L0.999993 179M1151 189L0.999992 189M1151 199L0.999992 199M1151 209L0.999991 209M1151 219L0.999991 219M1151 229L0.99999 229M1151 239L0.99999 239M1151 249L0.99999 249M1151 259L0.999989 259M1151 269L0.999989 269M1151 279L0.999988 279M1151 289L0.999988 289M1151 299L0.999987 299M1151 309L0.999987 309M1151 319L0.999986 319M1151 329L0.999986 329M1151 339L0.999986 339M1151 349L0.999985 349M1151 359L0.999985 359M1151 369L0.999984 369M1151 379L0.999984 379M1151 389L0.999983 389M1151 399L0.999983 399M1151 409L0.999983 409M1151 419L0.999982 419M1151 429L0.999982 429M1151 439L0.999981 439M1151 449L0.999981 449M1151 459L0.99998 459M1151 469L0.99998 469M1151 479L0.999979 479M1151 489L0.999979 489M1151 499L0.999979 499M1151 509L0.999978 509M1151 519H0.999978M1151 529H0.999977M1151 539H0.999977M1151 549H0.999976M1151 559H0.999976M1151 569H0.999976M1151 579H0.999975M1151 589H0.999975M1151 599H0.999974M1151 609H0.999974M1151 619H0.999973M1151 629H0.999973M1151 639H0.999972M1151 649H0.999972M1151 659H0.999972M1151 669H0.999971M1151 679H0.999971M1151 689H0.99997M1151 699H0.99997M1151 709H0.999969M1151 719H0.999969M1151 729H0.999969M1151 739H0.999968M1151 749H0.999968" stroke="white" stroke-opacity="0.6"/>
</svg>
