<svg width="17" height="12" viewBox="0 0 17 12" fill="none" xmlns="http://www.w3.org/2000/svg">
<path fill-rule="evenodd" clip-rule="evenodd" d="M0 0.75C0 0.335786 0.335786 0 0.75 0H16.25C16.6642 0 17 0.335786 17 0.75C17 1.16421 16.6642 1.5 16.25 1.5H0.75C0.335786 1.5 0 1.16421 0 0.75ZM0 5.75C0 5.33579 0.335786 5 0.75 5H16.25C16.6642 5 17 5.33579 17 5.75C17 6.16421 16.6642 6.5 16.25 6.5H0.75C0.335786 6.5 0 6.16421 0 5.75ZM0.75 10C0.335786 10 0 10.3358 0 10.75C0 11.1642 0.335786 11.5 0.75 11.5H16.25C16.6642 11.5 17 11.1642 17 10.75C17 10.3358 16.6642 10 16.25 10H0.75Z" fill="#FBF8F5"/>
</svg>
