<svg width="18" height="16" viewBox="0 0 18 16" fill="none" xmlns="http://www.w3.org/2000/svg">
<path d="M14.3502 3.62591H10.1704L7.28457 1.08548C7.22264 1.03033 7.14376 1 7.06229 1H2.7542C1.78619 1.00138 1.00134 1.83069 1 2.85445V12.21C1.00261 12.9511 1.28291 13.6612 1.77963 14.1845C2.27635 14.707 2.94842 15.0007 3.64915 15H14.3502C15.0509 15.0007 15.7237 14.707 16.2204 14.1845C16.7171 13.6612 16.9974 12.9512 17 12.21V6.42817C16.9987 5.68503 16.7197 4.9729 16.223 4.44754C15.7263 3.92217 15.053 3.62729 14.3502 3.62591ZM16.3045 12.2101C16.2999 13.3475 15.4258 14.2664 14.3502 14.2645H3.64916C2.57425 14.2665 1.70005 13.3476 1.69554 12.2101V2.85452C1.69619 2.23684 2.16944 1.73636 2.75417 1.73567H6.93643L9.82156 4.27663C9.88413 4.33109 9.96301 4.36142 10.0445 4.36142H14.3508C15.4296 4.3628 16.3031 5.28726 16.3045 6.42818L16.3045 12.2101Z" fill="#0E102D" stroke="#0E102D" stroke-width="0.3"/>
<path d="M6 9C6 8.83431 6.13431 8.7 6.3 8.7H11.7C11.8657 8.7 12 8.83431 12 9C12 9.16569 11.8657 9.3 11.7 9.3H6.3C6.13431 9.3 6 9.16569 6 9Z" fill="#0E102D"/>
<path d="M9 12C8.83431 12 8.7 11.8657 8.7 11.7L8.7 6.3C8.7 6.13431 8.83431 6 9 6C9.16569 6 9.3 6.13431 9.3 6.3L9.3 11.7C9.3 11.8657 9.16569 12 9 12Z" fill="#0E102D"/>
<path d="M6 9C6 8.83431 6.13431 8.7 6.3 8.7H11.7C11.8657 8.7 12 8.83431 12 9C12 9.16569 11.8657 9.3 11.7 9.3H6.3C6.13431 9.3 6 9.16569 6 9Z" stroke="#0E102D" stroke-width="0.5"/>
<path d="M9 12C8.83431 12 8.7 11.8657 8.7 11.7L8.7 6.3C8.7 6.13431 8.83431 6 9 6C9.16569 6 9.3 6.13431 9.3 6.3L9.3 11.7C9.3 11.8657 9.16569 12 9 12Z" stroke="#0E102D" stroke-width="0.5"/>
</svg>
