<svg width="17" height="18" viewBox="0 0 17 18" fill="none" xmlns="http://www.w3.org/2000/svg">
<g clip-path="url(#clip0_456_16013)">
<path d="M15.9909 0H10.2766C9.64807 0 9.13379 0.553846 9.13379 1.23077V4.92308C9.13379 5.6 9.64807 6.15385 10.2766 6.15385H11.6481L12.6195 8L13.5909 7.38462L12.2766 4.92308H10.2766V1.23077H15.9909V4.92308H14.2766V6.15385H15.9909C16.6195 6.15385 17.1338 5.6 17.1338 4.92308V1.23077C17.1338 0.553846 16.6195 0 15.9909 0Z" fill="white"/>
<path d="M8.17994 17L7.13379 16.4286L9.28764 13H12.6723C13.3492 13 13.903 12.4857 13.903 11.8571V9H15.1338V11.8571C15.1338 13.1143 14.0261 14.1429 12.6723 14.1429H9.96456L8.17994 17Z" fill="white"/>
<path d="M5.63379 10C5.90993 10 6.13379 9.55228 6.13379 9C6.13379 8.44772 5.90993 8 5.63379 8C5.35765 8 5.13379 8.44772 5.13379 9C5.13379 9.55228 5.35765 10 5.63379 10Z" fill="white"/>
<path d="M7.63379 10C7.90993 10 8.13379 9.55228 8.13379 9C8.13379 8.44772 7.90993 8 7.63379 8C7.35765 8 7.13379 8.44772 7.13379 9C7.13379 9.55228 7.35765 10 7.63379 10Z" fill="white"/>
<path d="M10.6338 10C10.9099 10 11.1338 9.55228 11.1338 9C11.1338 8.44772 10.9099 8 10.6338 8C10.3576 8 10.1338 8.44772 10.1338 9C10.1338 9.55228 10.3576 10 10.6338 10Z" fill="white"/>
<path d="M6.96712 14H3.46712C2.18379 14 1.13379 12.9 1.13379 11.5556V5.44444C1.13379 4.1 2.18379 3 3.46712 3H8.13379V4.22222H3.46712C2.82546 4.22222 2.30046 4.77222 2.30046 5.44444V11.5556C2.30046 12.2278 2.82546 12.7778 3.46712 12.7778H6.96712V14Z" fill="white"/>
</g>
<defs>
<clipPath id="clip0_456_16013">
<rect width="17" height="18" fill="white"/>
</clipPath>
</defs>
</svg>
