<svg width="15" height="15" viewBox="0 0 15 15" fill="none" xmlns="http://www.w3.org/2000/svg">
<path d="M6.28766 14.1667L5.9335 11.9354C5.70919 11.8528 5.47308 11.7406 5.22516 11.599C4.97725 11.4573 4.75884 11.3097 4.56995 11.1562L2.48037 12.1125L0.833496 9.20833L2.746 7.80937C2.72238 7.70312 2.70763 7.58212 2.70173 7.44635C2.69582 7.31059 2.69287 7.18958 2.69287 7.08333C2.69287 6.97708 2.69582 6.85608 2.70173 6.72031C2.70763 6.58455 2.72238 6.46354 2.746 6.35729L0.833496 4.95833L2.48037 2.05417L4.56995 3.01042C4.75884 2.85694 4.97725 2.70937 5.22516 2.56771C5.47308 2.42604 5.70919 2.31979 5.9335 2.24896L6.28766 0H9.546L9.90016 2.23125C10.1245 2.31389 10.3635 2.42309 10.6174 2.55885C10.8712 2.69462 11.0866 2.84514 11.2637 3.01042L13.3533 2.05417L15.0002 4.95833L13.0877 6.32188C13.1113 6.43993 13.126 6.56684 13.1319 6.7026C13.1378 6.83837 13.1408 6.96528 13.1408 7.08333C13.1408 7.20139 13.1378 7.32535 13.1319 7.45521C13.126 7.58507 13.1113 7.70903 13.0877 7.82708L15.0002 9.20833L13.3533 12.1125L11.2637 11.1562C11.0748 11.3097 10.8594 11.4602 10.6174 11.6078C10.3753 11.7554 10.1363 11.8646 9.90016 11.9354L9.546 14.1667H6.28766ZM7.91683 9.38542C8.55433 9.38542 9.09738 9.16111 9.546 8.7125C9.99461 8.26389 10.2189 7.72083 10.2189 7.08333C10.2189 6.44583 9.99461 5.90278 9.546 5.45417C9.09738 5.00556 8.55433 4.78125 7.91683 4.78125C7.27933 4.78125 6.73627 5.00556 6.28766 5.45417C5.83905 5.90278 5.61475 6.44583 5.61475 7.08333C5.61475 7.72083 5.83905 8.26389 6.28766 8.7125C6.73627 9.16111 7.27933 9.38542 7.91683 9.38542ZM7.91683 8.32292C7.57447 8.32292 7.28228 8.20191 7.04027 7.9599C6.79825 7.71788 6.67725 7.42569 6.67725 7.08333C6.67725 6.74097 6.79825 6.44878 7.04027 6.20677C7.28228 5.96476 7.57447 5.84375 7.91683 5.84375C8.25919 5.84375 8.55138 5.96476 8.79339 6.20677C9.03541 6.44878 9.15641 6.74097 9.15641 7.08333C9.15641 7.42569 9.03541 7.71788 8.79339 7.9599C8.55138 8.20191 8.25919 8.32292 7.91683 8.32292ZM7.13766 13.1042H8.696L8.94391 11.1208C9.3335 11.0264 9.70242 10.8788 10.0507 10.6781C10.3989 10.4774 10.7147 10.2354 10.9981 9.95208L12.8752 10.7667L13.5835 9.49167L11.9189 8.26979C11.9661 8.0691 12.0045 7.87135 12.034 7.67656C12.0635 7.48177 12.0783 7.28403 12.0783 7.08333C12.0783 6.88264 12.0665 6.6849 12.0429 6.4901C12.0193 6.29531 11.9779 6.09757 11.9189 5.89687L13.5835 4.675L12.8752 3.4L10.9981 4.21458C10.7266 3.90764 10.4196 3.65087 10.0772 3.44427C9.73489 3.23767 9.35711 3.10486 8.94391 3.04583L8.696 1.0625H7.13766L6.88975 3.04583C6.48836 3.12847 6.11353 3.27014 5.76527 3.47083C5.417 3.67153 5.10711 3.91944 4.83558 4.21458L2.9585 3.4L2.25016 4.675L3.91475 5.89687C3.86752 6.09757 3.82916 6.29531 3.79964 6.4901C3.77013 6.6849 3.75537 6.88264 3.75537 7.08333C3.75537 7.28403 3.77013 7.48177 3.79964 7.67656C3.82916 7.87135 3.86752 8.0691 3.91475 8.26979L2.25016 9.49167L2.9585 10.7667L4.83558 9.95208C5.11891 10.2354 5.43471 10.4774 5.78298 10.6781C6.13124 10.8788 6.50016 11.0264 6.88975 11.1208L7.13766 13.1042Z" fill="#7782B9"/>
</svg>
