<svg width="14" height="14" viewBox="0 0 14 14" fill="none" xmlns="http://www.w3.org/2000/svg">
<g clip-path="url(#clip0_526_22380)">
<path d="M13.6836 5.80947L13.6835 5.80958L12.7123 6.63699V6.63753V6.63829V6.63906V6.63982V6.64058V6.64134V6.6421V6.64286V6.64362V6.64438V6.64513V6.64589V6.64665V6.64741V6.64817V6.64893V6.64969V6.65045V6.65121V6.65197V6.65273V6.65348V6.65424V6.655V6.65576V6.65652V6.65728V6.65803V6.65879V6.65955V6.66031V6.66106V6.66182V6.66258V6.66334V6.66409V6.66485V6.66561V6.66637V6.66712V6.66788V6.66864V6.66939V6.67015V6.67091V6.67166V6.67242V6.67318V6.67393V6.67469V6.67544V6.6762V6.67696V6.67771V6.67847V6.67922V6.67998V6.68074V6.68149V6.68225V6.683V6.68376V6.68451V6.68527V6.68602V6.68678V6.68753V6.68829V6.68904V6.6898V6.69055V6.69131V6.69206V6.69281V6.69357V6.69432V6.69508V6.69583V6.69659V6.69734V6.69809V6.69885V6.6996V6.70035V6.70111V6.70186V6.70262V6.70337V6.70412V6.70488V6.70563V6.70638V6.70714V6.70789V6.70864V6.70939V6.71015V6.7109V6.71165V6.71241V6.71316V6.71391V6.71466V6.71542V6.71617V6.71692V6.71767V6.71843V6.71918V6.71993V6.72068V6.72144V6.72219V6.72294V6.72369V6.72444V6.72519V6.72595V6.7267V6.72745V6.7282V6.72895V6.72971V6.73046V6.73121V6.73196V6.73271V6.73346V6.73421V6.73496V6.73572V6.73647V6.73722V6.73797V6.73872V6.73947V6.74022V6.74097V6.74172V6.74248V6.74323V6.74398V6.74473V6.74548V6.74623V6.74698V6.74773V6.74848V6.74923V6.74998V6.75073V6.75148V6.75223V6.75298V6.75373V6.75448V6.75523V6.75599V6.75674V6.75749V6.75824V6.75899V6.75974V6.76049V6.76124V6.76199V6.76274V6.76349V6.76424V6.76499V6.76574V6.76649V6.76724V6.76799V6.76873V6.76948V6.77023V6.77098V6.77173V6.77248V6.77323V6.77398V6.77473V6.77548V6.77623V6.77698V6.77773V6.77848V6.77923V6.77998V6.78073V6.78148V6.78223V6.78298V6.78373V6.78448V6.78523V6.78597V6.78672V6.78747V6.78822V6.78897V6.78972V6.79047V6.79122V6.79197V6.79272V6.79347V6.79422V6.79497V6.79572V6.79646V6.79721V6.79796V6.79871V6.79946V6.80021V6.80096V6.80171V6.80246V6.80321V6.80396V6.80471V6.80546V6.8062V6.80695V6.8077V6.80845V6.8092V6.80995V6.8107V6.81145V6.8122V6.81295V6.8137V6.81445V6.8152V6.81594V6.81669V6.81744V6.81819V6.81894V6.81969V6.82044V6.82119V6.82194V6.82269V6.82344V6.82419V6.82494V6.82568V6.82643V6.82718V6.82793V6.82868V6.82943V6.83018V6.83093V6.83168V6.83243V6.83318V6.83393V6.83468V6.83543V6.83618V6.83693V6.83768V6.83843V6.83917V6.83992V6.84067V6.84142V6.84217V6.84292V6.84367V6.84442V6.84517V6.84592V6.84667V6.84742V6.84817V6.84892V6.84967V6.85042V6.85117V6.85192V6.85267V6.85342V6.85417V6.85492V6.85567V6.85642V6.85717V6.85792V6.85867V6.85942V6.86017V6.86092V6.86167V6.86242V6.86317V6.86392V6.86468V6.86543V6.86618V6.86693V6.86768V6.86843V6.86918V6.86993V6.87068V6.87143V6.87218V6.87293V6.87368V6.87444V6.87519V6.87594V6.87669V6.87744V6.87819V6.87894V6.87969V6.88045V6.8812V6.88195V6.8827V6.88345V6.8842V6.88495V6.88571V6.88646V6.88721V6.88796V6.88871V6.88946V6.89022V6.89097V6.89172V6.89247V6.89322V6.89398V6.89473V6.89548V6.89623V6.89699V6.89774V6.89849V6.89924V6.9V6.90075V6.9015V6.90225V6.90301V6.90376V6.90451V6.90527V6.90602V6.90677V6.90753V6.90828V6.90903V6.90979V6.91054V6.91129V6.91205V6.9128V6.91355V6.91431V6.91506V6.91581V6.91657V6.91732V6.91808V6.91883V6.91958V6.92034V6.92109V6.92185V6.9226V6.92336V6.92411V6.92487V6.92562V6.92638V6.92713V6.92789V6.92864V6.9294V6.93015V6.93091V6.93166V6.93242V6.93317V6.93393V6.93468V6.93544V6.93619V6.93695V6.93771V6.93846V6.93922V6.93998V6.94073V6.94149V6.94224V6.943V6.94376V6.94451V6.94527V6.94603V6.94678V6.94754V6.9483V6.94906V6.94981V6.95057V6.95133V6.95209V6.95284V6.9536V6.95436V6.95512V6.95587V6.95663V6.95739V6.95815V6.95891V6.95966V6.96042V6.96118V6.96194V6.9627V6.96346V6.96422V6.96498V6.96573V6.96649V6.96725V6.96801V6.96877V6.96953V6.97029V6.97105V6.97181V6.97257V6.97333V6.97409V6.97485V6.97561V6.97637V6.97713V6.97789V6.97866V6.97942V6.98018V6.98094V6.9817V6.98246V6.98322V6.98398V6.98475V6.98551V6.98627V6.98703V6.98779V6.98855V6.98932V6.99008V6.99084V6.9916V6.99237V6.99313V6.99389V6.99466V6.99542V6.99618V6.99695V6.99771V6.99847V6.99924V7V7.00076V7.00153V7.00229V7.00306V7.00382V7.00458V7.00534V7.00611V7.00687V7.00763V7.0084V7.00916V7.00992V7.01068V7.01145V7.01221V7.01297V7.01373V7.01449V7.01526V7.01602V7.01678V7.01754V7.0183V7.01906V7.01982V7.02058V7.02135V7.02211V7.02287V7.02363V7.02439V7.02515V7.02591V7.02667V7.02743V7.02819V7.02895V7.02971V7.03047V7.03123V7.03199V7.03274V7.0335V7.03426V7.03502V7.03578V7.03654V7.0373V7.03806V7.03881V7.03957V7.04033V7.04109V7.04185V7.0426V7.04336V7.04412V7.04488V7.04563V7.04639V7.04715V7.04791V7.04866V7.04942V7.05018V7.05093V7.05169V7.05245V7.0532V7.05396V7.05472V7.05547V7.05623V7.05698V7.05774V7.0585V7.05925V7.06001V7.06076V7.06152V7.06227V7.06303V7.06378V7.06454V7.06529V7.06605V7.0668V7.06756V7.06831V7.06907V7.06982V7.07058V7.07133V7.07208V7.07284V7.07359V7.07435V7.0751V7.07585V7.07661V7.07736V7.07811V7.07887V7.07962V7.08037V7.08112V7.08188V7.08263V7.08338V7.08414V7.08489V7.08564V7.08639V7.08714V7.0879V7.08865V7.0894V7.09015V7.0909V7.09166V7.09241V7.09316V7.09391V7.09466V7.09541V7.09616V7.09692V7.09767V7.09842V7.09917V7.09992V7.10067V7.10142V7.10217V7.10292V7.10367V7.10442V7.10517V7.10592V7.10667V7.10742V7.10817V7.10892V7.10967V7.11042V7.11117V7.11192V7.11267V7.11342V7.11417V7.11492V7.11566V7.11641V7.11716V7.11791V7.11866V7.11941V7.12016V7.12091V7.12165V7.1224V7.12315V7.1239V7.12465V7.12539V7.12614V7.12689V7.12764V7.12839V7.12913V7.12988V7.13063V7.13138V7.13212V7.13287V7.13362V7.13436V7.13511V7.13586V7.1366V7.13735V7.1381V7.13884V7.13959V7.14034V7.14108V7.14183V7.14258V7.14332V7.14407V7.14481V7.14556V7.14631V7.14705V7.1478V7.14854V7.14929V7.15003V7.15078V7.15153V7.15227V7.15302V7.15376V7.15451V7.15525V7.156V7.15674V7.15749V7.15823V7.15898V7.15972V7.16046V7.16121V7.16195V7.1627V7.16344V7.16419V7.16493V7.16567V7.16642V7.16716V7.16791V7.16865V7.16939V7.17014V7.17088V7.17163V7.17237V7.17311V7.17386V7.1746V7.17534V7.17609V7.17683V7.17757V7.17831V7.17906V7.1798V7.18054V7.18129V7.18203V7.18277V7.18351V7.18426V7.185V7.18574V7.18648V7.18723V7.18797V7.18871V7.18945V7.19019V7.19094V7.19168V7.19242V7.19316V7.1939V7.19465V7.19539V7.19613V7.19687V7.19761V7.19835V7.19909V7.19984V7.20058V7.20132V7.20206V7.2028V7.20354V7.20428V7.20502V7.20576V7.20651V7.20725V7.20799V7.20873V7.20947V7.21021V7.21095V7.21169V7.21243V7.21317V7.21391V7.21465V7.21539V7.21613V7.21687V7.21761V7.21835V7.21909V7.21983V7.22057V7.22131V7.22205V7.22279V7.22353V7.22427V7.22501V7.22575V7.22649V7.22723V7.22797V7.22871V7.22945V7.23018V7.23092V7.23166V7.2324V7.23314V7.23388V7.23462V7.23536V7.2361V7.23684V7.23757V7.23831V7.23905V7.23979V7.24053V7.24127V7.24201V7.24274V7.24348V7.24422V7.24496V7.2457V7.24644V7.24717V7.24791V7.24865V7.24939V7.25013V7.25087V7.2516V7.25234V7.25308V7.25382V7.25456V7.25529V7.25603V7.25677V7.25751V7.25824V7.25898V7.25972V7.26046V7.26119V7.26193V7.26267V7.26341V7.26414V7.26488V7.26562V7.26636V7.26709V7.26783V7.26857V7.2693V7.27004V7.27078V7.27151V7.27225V7.27299V7.27373V7.27446V7.2752V7.27594V7.27667V7.27741V7.27815V7.27888V7.27962V7.28036V7.28109V7.28183V7.28257V7.2833V7.28404V7.28478V7.28551V7.28625V7.28698V7.28772V7.28846V7.28919V7.28993V7.29067V7.2914V7.29214V7.29287V7.29361V7.29435V7.29508V7.29582V7.29656V7.29729V7.29803V7.29876V7.2995V7.30023V7.30097V7.30171V7.30244V7.30318V7.30391V7.30465V7.30538V7.30612V7.30686V7.30759V7.30833V7.30906V7.3098V7.31053V7.31127V7.31201V7.31274V7.31348V7.31421V7.31495V7.31568V7.31642V7.31715V7.31789V7.31862V7.31936V7.32009V7.32083V7.32156V7.3223V7.32304V7.32377V7.32451V7.32524V7.32598V7.32671V7.32745V7.32818V7.32892V7.32965V7.33039V7.33112V7.33186V7.33259V7.33333V7.33406V7.3348V7.33553V7.33627V7.337V7.33774V7.33847V7.33921V7.33994V7.34068V7.34141V7.34214V7.34288V7.34361V7.34435V7.34508V7.34582V7.34655V7.34729V7.34802V7.34876V7.34949V7.35023V7.35096V7.3517V7.35243V7.35317V7.3539V7.35464V7.35537V7.3561V7.35684V7.35757V7.35831V7.35904V7.35978V7.36051V7.36125V7.36198V7.36272V7.36345V7.36419V7.36492V7.36565V7.36639V7.36712V7.36786V7.36859V7.36933V7.37006V7.3708V7.37153V7.37227V7.373V7.37373V7.37447V7.3752V7.37594V7.37667V7.37741V7.37814V7.37888V7.37961V7.38034V7.38108H12.6623L13.6836 5.80947ZM13.6836 5.80947C13.8748 5.64539 14.0005 5.42056 14.0382 5.17458C14.0758 4.92874 14.023 4.67797 13.8893 4.46658C13.8892 4.46644 13.8891 4.46629 13.889 4.46615L12.6744 2.46172C12.6743 2.46164 12.6743 2.46155 12.6742 2.46147C12.5794 2.30164 12.4432 2.16904 12.2793 2.07684C12.1155 1.98463 11.9297 1.93602 11.7406 1.93581M13.6836 5.80947L1.28238 7.36324V7.36323V7.36247V7.36171V7.36095V7.36019V7.35943V7.35866V7.3579V7.35714V7.35639V7.35563V7.35487V7.35411V7.35335V7.35259V7.35183V7.35107V7.35031V7.34955V7.34879V7.34803V7.34727V7.34652V7.34576V7.345V7.34424V7.34348V7.34272V7.34197V7.34121V7.34045V7.33969V7.33894V7.33818V7.33742V7.33666V7.33591V7.33515V7.33439V7.33363V7.33288V7.33212V7.33136V7.33061V7.32985V7.32909V7.32834V7.32758V7.32682V7.32607V7.32531V7.32456V7.3238V7.32304V7.32229V7.32153V7.32078V7.32002V7.31927V7.31851V7.31775V7.317V7.31624V7.31549V7.31473V7.31398V7.31322V7.31247V7.31171V7.31096V7.3102V7.30945V7.3087V7.30794V7.30719V7.30643V7.30568V7.30492V7.30417V7.30342V7.30266V7.30191V7.30115V7.3004V7.29965V7.29889V7.29814V7.29739V7.29663V7.29588V7.29513V7.29437V7.29362V7.29287V7.29211V7.29136V7.29061V7.28985V7.2891V7.28835V7.28759V7.28684V7.28609V7.28534V7.28458V7.28383V7.28308V7.28233V7.28157V7.28082V7.28007V7.27932V7.27857V7.27781V7.27706V7.27631V7.27556V7.27481V7.27405V7.2733V7.27255V7.2718V7.27105V7.2703V7.26954V7.26879V7.26804V7.26729V7.26654V7.26579V7.26504V7.26428V7.26353V7.26278V7.26203V7.26128V7.26053V7.25978V7.25903V7.25828V7.25752V7.25677V7.25602V7.25527V7.25452V7.25377V7.25302V7.25227V7.25152V7.25077V7.25002V7.24927V7.24852V7.24777V7.24702V7.24627V7.24552V7.24477V7.24402V7.24327V7.24252V7.24177V7.24101V7.24026V7.23951V7.23876V7.23801V7.23726V7.23651V7.23576V7.23501V7.23426V7.23352V7.23277V7.23202V7.23127V7.23052V7.22977V7.22902V7.22827V7.22752V7.22677V7.22602V7.22527V7.22452V7.22377V7.22302V7.22227V7.22152V7.22077V7.22002V7.21927V7.21852V7.21777V7.21702V7.21627V7.21552V7.21478V7.21403V7.21328V7.21253V7.21178V7.21103V7.21028V7.20953V7.20878V7.20803V7.20728V7.20653V7.20578V7.20503V7.20429V7.20354V7.20279V7.20204V7.20129V7.20054V7.19979V7.19904V7.19829V7.19754V7.19679V7.19604V7.19529V7.19455V7.1938V7.19305V7.1923V7.19155V7.1908V7.19005V7.1893V7.18855V7.1878V7.18705V7.1863V7.18555V7.18481V7.18406V7.18331V7.18256V7.18181V7.18106V7.18031V7.17956V7.17881V7.17806V7.17731V7.17656V7.17581V7.17507V7.17432V7.17357V7.17282V7.17207V7.17132V7.17057V7.16982V7.16907V7.16832V7.16757V7.16682V7.16607V7.16532V7.16457V7.16382V7.16307V7.16232V7.16158V7.16083V7.16008V7.15933V7.15858V7.15783V7.15708V7.15633V7.15558V7.15483V7.15408V7.15333V7.15258V7.15183V7.15108V7.15033V7.14958V7.14883V7.14808V7.14733V7.14658V7.14583V7.14508V7.14433V7.14358V7.14283V7.14208V7.14133V7.14058V7.13983V7.13908V7.13833V7.13758V7.13683V7.13608V7.13533V7.13457V7.13382V7.13307V7.13232V7.13157V7.13082V7.13007V7.12932V7.12857V7.12782V7.12707V7.12632V7.12557V7.12481V7.12406V7.12331V7.12256V7.12181V7.12106V7.12031V7.11956V7.1188V7.11805V7.1173V7.11655V7.1158V7.11505V7.1143V7.11354V7.11279V7.11204V7.11129V7.11054V7.10978V7.10903V7.10828V7.10753V7.10678V7.10602V7.10527V7.10452V7.10377V7.10301V7.10226V7.10151V7.10076V7.1V7.09925V7.0985V7.09775V7.09699V7.09624V7.09549V7.09474V7.09398V7.09323V7.09248V7.09172V7.09097V7.09022V7.08946V7.08871V7.08795V7.0872V7.08645V7.08569V7.08494V7.08419V7.08343V7.08268V7.08192V7.08117V7.08042V7.07966V7.07891V7.07815V7.0774V7.07664V7.07589V7.07513V7.07438V7.07363V7.07287V7.07212V7.07136V7.07061V7.06985V7.06909V7.06834V7.06758V7.06683V7.06607V7.06532V7.06456V7.06381V7.06305V7.06229V7.06154V7.06078V7.06003V7.05927V7.05851V7.05776V7.057V7.05624V7.05549V7.05473V7.05397V7.05322V7.05246V7.0517V7.05095V7.05019V7.04943V7.04867V7.04792V7.04716V7.0464V7.04564V7.04489V7.04413V7.04337V7.04261V7.04185V7.04109V7.04034V7.03958V7.03882V7.03806V7.0373V7.03654V7.03578V7.03503V7.03427V7.03351V7.03275V7.03199V7.03123V7.03047V7.02971V7.02895V7.02819V7.02743V7.02667V7.02591V7.02515V7.02439V7.02363V7.02287V7.02211V7.02135V7.02059V7.01982V7.01906V7.0183V7.01754V7.01678V7.01602V7.01526V7.01449V7.01373V7.01297V7.01221V7.01145V7.01068V7.00992V7.00916V7.0084V7.00763V7.00687V7.00611V7.00534V7.00458V7.00382V7.00306V7.00229V7.00153V7.00076V7V6.99924V6.99847V6.99771V6.99695V6.99618V6.99542V6.99466V6.99389V6.99313V6.99237V6.9916V6.99084V6.99008V6.98932V6.98855V6.98779V6.98703V6.98627V6.98551V6.98475V6.98398V6.98322V6.98246V6.9817V6.98094V6.98018V6.97942V6.97866V6.9779V6.97713V6.97637V6.97561V6.97485V6.97409V6.97333V6.97257V6.97181V6.97105V6.97029V6.96953V6.96878V6.96802V6.96726V6.9665V6.96574V6.96498V6.96422V6.96346V6.9627V6.96195V6.96119V6.96043V6.95967V6.95891V6.95815V6.9574V6.95664V6.95588V6.95512V6.95437V6.95361V6.95285V6.95209V6.95134V6.95058V6.94982V6.94907V6.94831V6.94755V6.9468V6.94604V6.94528V6.94453V6.94377V6.94302V6.94226V6.9415V6.94075V6.93999V6.93924V6.93848V6.93773V6.93697V6.93622V6.93546V6.93471V6.93395V6.9332V6.93244V6.93169V6.93093V6.93018V6.92943V6.92867V6.92792V6.92716V6.92641V6.92566V6.9249V6.92415V6.9234V6.92264V6.92189V6.92114V6.92038V6.91963V6.91888V6.91812V6.91737V6.91662V6.91587V6.91511V6.91436V6.91361V6.91286V6.9121V6.91135V6.9106V6.90985V6.9091V6.90834V6.90759V6.90684V6.90609V6.90534V6.90459V6.90384V6.90309V6.90233V6.90158V6.90083V6.90008V6.89933V6.89858V6.89783V6.89708V6.89633V6.89558V6.89483V6.89408V6.89333V6.89258V6.89183V6.89108V6.89033V6.88958V6.88883V6.88808V6.88733V6.88658V6.88583V6.88509V6.88434V6.88359V6.88284V6.88209V6.88134V6.88059V6.87984V6.8791V6.87835V6.8776V6.87685V6.8761V6.87535V6.87461V6.87386V6.87311V6.87236V6.87162V6.87087V6.87012V6.86937V6.86863V6.86788V6.86713V6.86638V6.86564V6.86489V6.86414V6.8634V6.86265V6.8619V6.86116V6.86041V6.85966V6.85892V6.85817V6.85742V6.85668V6.85593V6.85519V6.85444V6.85369V6.85295V6.8522V6.85146V6.85071V6.84997V6.84922V6.84847V6.84773V6.84698V6.84624V6.84549V6.84475V6.844V6.84326V6.84251V6.84177V6.84102V6.84028V6.83954V6.83879V6.83805V6.8373V6.83656V6.83581V6.83507V6.83433V6.83358V6.83284V6.83209V6.83135V6.83061V6.82986V6.82912V6.82838V6.82763V6.82689V6.82615V6.8254V6.82466V6.82392V6.82317V6.82243V6.82169V6.82094V6.8202V6.81946V6.81871V6.81797V6.81723V6.81649V6.81574V6.815V6.81426V6.81352V6.81277V6.81203V6.81129V6.81055V6.80981V6.80906V6.80832V6.80758V6.80684V6.8061V6.80536V6.80461V6.80387V6.80313V6.80239V6.80165V6.80091V6.80016V6.79942V6.79868V6.79794V6.7972V6.79646V6.79572V6.79498V6.79424V6.7935V6.79275V6.79201V6.79127V6.79053V6.78979V6.78905V6.78831V6.78757V6.78683V6.78609V6.78535V6.78461V6.78387V6.78313V6.78239V6.78165V6.78091V6.78017V6.77943V6.77869V6.77795V6.77721V6.77647V6.77573V6.77499V6.77425V6.77351V6.77277V6.77203V6.77129V6.77056V6.76982V6.76908V6.76834V6.7676V6.76686V6.76612V6.76538V6.76464V6.7639V6.76316V6.76243V6.76169V6.76095V6.76021V6.75947V6.75873V6.75799V6.75726V6.75652V6.75578V6.75504V6.7543V6.75356V6.75283V6.75209V6.75135V6.75061V6.74987V6.74914V6.7484V6.74766V6.74692V6.74618V6.74545V6.74471V6.74397V6.74323V6.74249V6.74176V6.74102V6.74028V6.73954V6.73881V6.73807V6.73733V6.73659V6.73586V6.73512V6.73438V6.73365V6.73291V6.73217V6.73143V6.7307V6.72996V6.72922V6.72849V6.72775V6.72701V6.72627V6.72554V6.7248V6.72406V6.72333V6.72259V6.72185V6.72112V6.72038V6.71964V6.71891V6.71817V6.71743V6.7167V6.71596V6.71522V6.71449V6.71375V6.71302V6.71228V6.71154V6.71081V6.71007V6.70933V6.7086V6.70786V6.70713V6.70639V6.70565V6.70492V6.70418V6.70345V6.70271V6.70197V6.70124V6.7005V6.69977V6.69903V6.69829V6.69756V6.69682V6.69609V6.69535V6.69462V6.69388V6.69314V6.69241V6.69167V6.69094V6.6902V6.68947V6.68873V6.688V6.68726V6.68652V6.68579V6.68505V6.68432V6.68358V6.68285V6.68211V6.68138V6.68064V6.67991V6.67917V6.67844V6.6777V6.67697V6.67623V6.6755V6.67476V6.67402V6.67329V6.67255V6.67182V6.67108V6.67035V6.66961V6.66888V6.66814V6.66741V6.66667V6.66594V6.6652V6.66447V6.66373V6.663V6.66226V6.66153V6.66079V6.66006V6.65933V6.65859V6.65786V6.65712V6.65639V6.65565V6.65492V6.65418V6.65345V6.65271V6.65198V6.65124V6.65051V6.64977V6.64904V6.6483V6.64757V6.64683V6.6461V6.64537V6.64463V6.6439V6.64316V6.64243V6.64169V6.64134L0.326162 5.78914C0.137927 5.62829 0.0126905 5.40855 -0.0277759 5.16734C-0.0682743 4.92595 -0.021284 4.67843 0.104974 4.46725L0.105127 4.46699L1.32027 2.46172C1.32031 2.46165 1.32035 2.46158 1.32039 2.46152C1.41523 2.30166 1.55146 2.16905 1.7153 2.07684C1.87873 1.98487 2.06397 1.93627 2.25254 1.93581C2.36805 1.92833 2.48405 1.939 2.59611 1.96743L2.60048 1.96853L2.60041 1.96872L3.80311 2.39186C4.00947 2.26059 4.22398 2.14191 4.44541 2.03651L4.70295 0.797476C4.75246 0.554799 4.888 0.337094 5.08548 0.18231C5.28282 0.0276431 5.5295 -0.0544268 5.7824 -0.0498158H8.19165C8.44454 -0.0544268 8.69123 0.0276432 8.88856 0.18231C9.08601 0.337065 9.22154 0.554717 9.27106 0.797338C9.27107 0.797384 9.27108 0.79743 9.27109 0.797476L9.52866 2.03659C9.74863 2.14208 9.96163 2.26084 10.1664 2.39217L11.3952 1.98845L11.3956 1.98833C11.5069 1.95268 11.6235 1.93495 11.7406 1.93581M11.7406 1.93581C11.7407 1.93581 11.7407 1.93581 11.7408 1.93581L11.7404 1.98581L11.7405 1.93581C11.7405 1.93581 11.7406 1.93581 11.7406 1.93581ZM9.97399 10.4297L9.98963 10.3822L9.96345 10.3736L9.94218 10.3911L9.97399 10.4297ZM9.97399 10.4297L11.7404 11.0114L5.78194 13.017H8.21271L8.57836 11.2169M9.97399 10.4297C9.56049 10.7707 9.08789 11.0373 8.57836 11.2169M8.57836 11.2169L8.56173 11.1698L8.535 11.1792L8.52936 11.207L8.57836 11.2169Z" fill="#7782B9" stroke="#7782B9" stroke-width="0.1"/>
<path d="M6.99975 9.675C6.47077 9.67495 5.95368 9.51807 5.51385 9.22418C5.07395 8.93025 4.73109 8.51247 4.52862 8.02368C4.32616 7.53489 4.27319 6.99703 4.3764 6.47813C4.47962 5.95924 4.73438 5.4826 5.10849 5.10849C5.4826 4.73438 5.95924 4.47962 6.47813 4.3764C6.99703 4.27319 7.53489 4.32616 8.02368 4.52862C8.51247 4.73109 8.93025 5.07395 9.22418 5.51385C9.51807 5.95369 9.67496 6.47079 9.675 6.99977M6.99975 9.675C7.35201 9.67854 7.70144 9.61178 8.02758 9.47862C8.35381 9.34544 8.65017 9.14849 8.89933 8.89933C9.14849 8.65017 9.34544 8.35381 9.47862 8.02758C9.61178 7.70145 9.67854 7.35203 9.675 6.99977M6.99975 9.675C6.99966 9.675 6.99958 9.675 6.99949 9.675L7 9.625V9.675C6.99992 9.675 6.99983 9.675 6.99975 9.675ZM9.675 6.99977C9.675 6.99968 9.675 6.99959 9.675 6.99949L9.625 7H9.675C9.675 6.99993 9.675 6.99985 9.675 6.99977ZM6.99884 5.29999L6.99884 5.30004L7.00117 5.29999C7.22569 5.29476 7.44895 5.33512 7.65742 5.41865C7.8659 5.50217 8.05527 5.62712 8.21408 5.78592C8.37289 5.94473 8.49783 6.1341 8.58135 6.34258C8.66488 6.55106 8.70525 6.77431 8.70001 6.99884L8.69996 6.99884L8.70001 7.00117C8.70525 7.22569 8.66488 7.44895 8.58135 7.65742C8.49783 7.8659 8.37289 8.05527 8.21408 8.21408C8.05527 8.37289 7.8659 8.49783 7.65742 8.58135C7.44895 8.66488 7.22569 8.70525 7.00117 8.70001L7.00117 8.69996L6.99884 8.70001C6.77431 8.70525 6.55106 8.66488 6.34258 8.58135C6.1341 8.49783 5.94473 8.37289 5.78592 8.21408C5.62712 8.05527 5.50217 7.8659 5.41865 7.65742C5.33512 7.44895 5.29476 7.22569 5.29999 7.00117L5.30004 7.00117L5.29999 6.99884C5.29476 6.77431 5.33512 6.55106 5.41865 6.34258C5.50217 6.1341 5.62712 5.94473 5.78592 5.78592C5.94473 5.62712 6.1341 5.50217 6.34258 5.41865C6.55106 5.33512 6.77431 5.29476 6.99884 5.29999Z" fill="#7782B9" stroke="#7782B9" stroke-width="0.1"/>
</g>
<defs>
<clipPath id="clip0_526_22380">
<rect width="14" height="14" fill="white"/>
</clipPath>
</defs>
</svg>
