<svg width="23" height="8" viewBox="0 0 23 8" fill="none" xmlns="http://www.w3.org/2000/svg">
<path fill-rule="evenodd" clip-rule="evenodd" d="M1 0C0.447715 0 0 0.447715 0 1V7C0 7.55228 0.447715 8 1 8H3C3.55228 8 4 7.55228 4 7V1C4 0.447715 3.55228 0 3 0H1ZM6 1C6 0.447715 6.44772 0 7 0H16C16.5523 0 17 0.447715 17 1V7C17 7.55228 16.5523 8 16 8H7C6.44771 8 6 7.55228 6 7V1ZM19 1C19 0.447715 19.4477 0 20 0H22C22.5523 0 23 0.447715 23 1V7C23 7.55228 22.5523 8 22 8H20C19.4477 8 19 7.55228 19 7V1Z" fill="#7782B9"/>
</svg>
