<svg width="20" height="18" viewBox="0 0 20 18" fill="none" xmlns="http://www.w3.org/2000/svg">
<path fill-rule="evenodd" clip-rule="evenodd" d="M19 -4.37114e-08C19.2652 -3.21184e-08 19.5196 0.105357 19.7071 0.292893C19.8946 0.48043 20 0.734784 20 1L20 17C20 17.2652 19.8946 17.5196 19.7071 17.7071C19.5196 17.8946 19.2652 18 19 18C18.7348 18 18.4804 17.8946 18.2929 17.7071C18.1054 17.5196 18 17.2652 18 17L18 1C18 0.734783 18.1054 0.480429 18.2929 0.292893C18.4804 0.105357 18.7348 -5.53044e-08 19 -4.37114e-08ZM15.78 8.375C15.922 8.55236 15.9994 8.77279 15.9994 9C15.9994 9.22721 15.922 9.44764 15.78 9.625L13.78 12.125C13.6995 12.2321 13.5984 12.3219 13.4826 12.3892C13.3667 12.4564 13.2385 12.4997 13.1056 12.5165C12.9727 12.5333 12.8378 12.5232 12.7089 12.4868C12.58 12.4504 12.4597 12.3885 12.3552 12.3047C12.2506 12.221 12.164 12.1171 12.1004 11.9992C12.0368 11.8813 11.9975 11.7518 11.9849 11.6185C11.9723 11.4851 11.9866 11.3506 12.027 11.2229C12.0674 11.0952 12.133 10.9769 12.22 10.875L12.92 10L7.08 10L7.78 10.875C7.93605 11.0827 8.00513 11.343 7.97261 11.6008C7.94009 11.8586 7.80853 12.0936 7.60578 12.256C7.40303 12.4185 7.14501 12.4956 6.88635 12.4712C6.6277 12.4467 6.38871 12.3226 6.22 12.125L4.22 9.625C4.078 9.44764 4.00063 9.2272 4.00063 9C4.00063 8.77279 4.078 8.55236 4.22 8.375L6.22 5.875C6.38871 5.67742 6.6277 5.55326 6.88635 5.52881C7.14501 5.50435 7.40303 5.58153 7.60578 5.74399C7.80853 5.90645 7.94009 6.14144 7.97261 6.3992C8.00513 6.65697 7.93605 6.91727 7.78 7.125L7.08 8L12.92 8L12.22 7.125C12.133 7.02313 12.0674 6.90483 12.027 6.77711C11.9866 6.6494 11.9723 6.51487 11.9849 6.38151C11.9975 6.24816 12.0368 6.11869 12.1004 6.00081C12.164 5.88292 12.2506 5.77901 12.3552 5.69525C12.4597 5.61149 12.58 5.54959 12.7089 5.51321C12.8378 5.47684 12.9727 5.46673 13.1056 5.4835C13.2385 5.50026 13.3667 5.54356 13.4826 5.61081C13.5984 5.67806 13.6995 5.7679 13.78 5.875L15.78 8.375ZM2 0.999999C2 0.734783 1.89464 0.480429 1.70711 0.292892C1.51957 0.105356 1.26522 -8.18923e-07 1 -8.30516e-07C0.734783 -8.42109e-07 0.480429 0.105356 0.292892 0.292892C0.105356 0.480429 -3.21184e-08 0.734783 -4.37114e-08 0.999999L-7.43094e-07 17C-7.54687e-07 17.2652 0.105355 17.5196 0.292892 17.7071C0.480428 17.8946 0.734782 18 0.999999 18C1.26522 18 1.51957 17.8946 1.70711 17.7071C1.89464 17.5196 2 17.2652 2 17L2 0.999999Z" fill="#7782B9"/>
</svg>
