<svg width="7" height="9" viewBox="0 0 7 9" fill="none" xmlns="http://www.w3.org/2000/svg">
<path fill-rule="evenodd" clip-rule="evenodd" d="M6.5 1.25C6.5 1.94055 5.93998 2.5 5.25 2.5C4.55945 2.5 4 1.94055 4 1.25C4 0.560016 4.55945 0 5.25 0C5.93998 0 6.5 0.560016 6.5 1.25ZM1.25 2.5144C1.93998 2.5144 2.5 1.95495 2.5 1.2644C2.5 0.57442 1.93998 0.0144043 1.25 0.0144043C0.559452 0.0144043 0 0.57442 0 1.2644C0 1.95495 0.559452 2.5144 1.25 2.5144ZM1.25 8.5144C1.93998 8.5144 2.5 7.95495 2.5 7.2644C2.5 6.57442 1.93998 6.0144 1.25 6.0144C0.559452 6.0144 0 6.57442 0 7.2644C0 7.95495 0.559452 8.5144 1.25 8.5144ZM5.25 8.5C5.93998 8.5 6.5 7.94055 6.5 7.25C6.5 6.56002 5.93998 6 5.25 6C4.55945 6 4 6.56002 4 7.25C4 7.94055 4.55945 8.5 5.25 8.5Z" fill="#7782B9"/>
</svg>
