<svg width="20" height="12" viewBox="0 0 20 12" fill="none" xmlns="http://www.w3.org/2000/svg">
<path fill-rule="evenodd" clip-rule="evenodd" d="M0.7988 1.2988C0.287337 1.81026 0 2.50395 0 3.22727V8.77273C0 9.49605 0.287337 10.1897 0.7988 10.7012C1.31026 11.2127 2.00395 11.5 2.72727 11.5H17.2727C17.996 11.5 18.6897 11.2127 19.2012 10.7012C19.7127 10.1897 20 9.49605 20 8.77273V3.22727C20 2.50395 19.7127 1.81026 19.2012 1.2988C18.6897 0.787337 17.996 0.5 17.2727 0.5H2.72727C2.00395 0.5 1.31026 0.787337 0.7988 1.2988ZM2.08445 2.58445C2.25494 2.41396 2.48617 2.31818 2.72727 2.31818H17.2727C17.5138 2.31818 17.7451 2.41396 17.9156 2.58445C18.086 2.75494 18.1818 2.98617 18.1818 3.22727V8.77273C18.1818 9.01383 18.086 9.24506 17.9156 9.41555C17.7451 9.58604 17.5138 9.68182 17.2727 9.68182H2.72727C2.48617 9.68182 2.25494 9.58604 2.08445 9.41555C1.91396 9.24506 1.81818 9.01383 1.81818 8.77273V3.22727C1.81818 2.98617 1.91396 2.75494 2.08445 2.58445ZM16.5311 4.75L13.5 8.5L10.4689 4.75H16.5311Z" fill="#7782B9"/>
</svg>
