<svg width="20" height="12" viewBox="0 0 20 12" fill="none" xmlns="http://www.w3.org/2000/svg">
<path fill-rule="evenodd" clip-rule="evenodd" d="M12.7273 0.545471H1.81818C1.33597 0.545471 0.873508 0.737029 0.532533 1.078C0.191558 1.41898 0 1.88144 0 2.36365V9.63638C0 10.1186 0.191558 10.5811 0.532533 10.922C0.873508 11.263 1.33597 11.4546 1.81818 11.4546H12.7273V9.63638H1.81818V2.36365H12.7273V0.545471ZM13.3636 11.4546V9.63638H18.1818V2.36365H13.3636V0.545471H18.1818C18.664 0.545471 19.1265 0.737029 19.4675 1.078C19.8084 1.41898 20 1.88144 20 2.36365V9.63638C20 10.1186 19.8084 10.5811 19.4675 10.922C19.1265 11.263 18.664 11.4546 18.1818 11.4546H13.3636ZM6.00909 4.3782L5.42727 6.52365C5.42727 6.5382 5.43182 6.55274 5.44182 6.5682C5.45091 6.57729 5.46364 6.58274 5.47818 6.58274H6.55455C6.57 6.58274 6.58182 6.5782 6.59182 6.5682C6.60727 6.55274 6.61182 6.5382 6.60727 6.52274L6.02455 4.3782C6.02455 4.37365 6.02182 4.37093 6.01636 4.37093C6.01182 4.37093 6.00909 4.37365 6.00909 4.3782ZM3.94 8.72729C3.89135 8.72892 3.8431 8.71808 3.79982 8.6958C3.75654 8.67353 3.71967 8.64055 3.69273 8.60002C3.66386 8.56075 3.64539 8.51482 3.63904 8.46651C3.63268 8.41819 3.63864 8.36905 3.65636 8.32365L5.22455 3.67638C5.26709 3.56032 5.3426 3.45921 5.44182 3.38547C5.54139 3.31217 5.66181 3.27267 5.78545 3.27274H6.27818C6.40818 3.27274 6.52273 3.31002 6.62182 3.38456C6.72388 3.4554 6.80014 3.5575 6.83909 3.67547L8.41545 8.32365C8.43309 8.36961 8.43817 8.41943 8.43019 8.468C8.4222 8.51656 8.40142 8.56213 8.37 8.60002C8.34322 8.64029 8.30664 8.67309 8.26371 8.69535C8.22078 8.71762 8.17289 8.72861 8.12455 8.72729H7.62364C7.50245 8.7269 7.38457 8.68772 7.28727 8.61547C7.18999 8.53931 7.11933 8.43429 7.08545 8.31547L6.89818 7.60638C6.89364 7.56638 6.86636 7.54638 6.81636 7.54638H5.21727C5.17182 7.54638 5.14455 7.56638 5.13545 7.60638L4.94818 8.31547C4.91815 8.43604 4.84672 8.54222 4.74636 8.61547C4.64979 8.68909 4.53143 8.72843 4.41 8.72729H3.94Z" fill="#7782B9"/>
</svg>
