<svg width="20" height="18" viewBox="0 0 20 18" fill="none" xmlns="http://www.w3.org/2000/svg">
<path fill-rule="evenodd" clip-rule="evenodd" d="M0 2.72727C0 2.00395 0.287337 1.31026 0.7988 0.7988C1.31026 0.287337 2.00395 0 2.72727 0H17.2727C17.996 0 18.6897 0.287337 19.2012 0.7988C19.7127 1.31026 20 2.00395 20 2.72727V15.2727C20 15.996 19.7127 16.6897 19.2012 17.2012C18.6897 17.7127 17.996 18 17.2727 18H2.72727C2.00395 18 1.31026 17.7127 0.7988 17.2012C0.287337 16.6897 0 15.996 0 15.2727V2.72727ZM2.72727 1.81818C2.48617 1.81818 2.25494 1.91396 2.08445 2.08445C1.91396 2.25494 1.81818 2.48617 1.81818 2.72727V15.2727C1.81818 15.5138 1.91396 15.7451 2.08445 15.9156C2.25494 16.086 2.48617 16.1818 2.72727 16.1818H17.2727C17.5138 16.1818 17.7451 16.086 17.9156 15.9156C18.086 15.7451 18.1818 15.5138 18.1818 15.2727V2.72727C18.1818 2.48617 18.086 2.25494 17.9156 2.08445C17.7451 1.91396 17.5138 1.81818 17.2727 1.81818H2.72727ZM9.35 8.58182V9.86182C9.35 9.90545 9.37182 9.93182 9.41545 9.94182C9.51727 9.96091 9.64091 9.97091 9.78636 9.97091C10.13 9.97091 10.3827 9.90727 10.5427 9.78182C10.7027 9.65091 10.7827 9.45182 10.7827 9.18546C10.7827 8.74 10.4191 8.51636 9.69182 8.51636H9.40818C9.36909 8.51636 9.35 8.53818 9.35 8.58182ZM9.35 6.50182V7.57091C9.35 7.61 9.36909 7.62909 9.40818 7.62909H9.59C10.2973 7.62909 10.6518 7.41818 10.6518 6.99636C10.6518 6.59364 10.3555 6.39273 9.76455 6.39273C9.62364 6.39273 9.50455 6.40182 9.40818 6.42182C9.36909 6.43091 9.35 6.45818 9.35 6.50182ZM8.54273 10.8509C8.48636 10.8467 8.43146 10.831 8.38142 10.8047C8.33138 10.7785 8.28727 10.7422 8.25182 10.6982C8.17631 10.6115 8.13494 10.5004 8.13546 10.3855V5.97818C8.1332 5.86296 8.17479 5.75118 8.25182 5.66545C8.33364 5.57364 8.43364 5.52273 8.55 5.51273C8.91966 5.47423 9.29107 5.45481 9.66273 5.45455C11.0682 5.45455 11.7718 5.90818 11.7718 6.81455C11.7718 7.12 11.6718 7.37909 11.4736 7.59273C11.2791 7.80636 11.0173 7.94182 10.6882 8C10.6827 8 10.6809 8.00455 10.6809 8.01455C10.6809 8.01909 10.6855 8.02182 10.6955 8.02182C11.0782 8.07546 11.3809 8.22091 11.6045 8.45818C11.8318 8.69546 11.9464 8.97909 11.9464 9.30909C11.9464 9.84727 11.7664 10.25 11.4082 10.5164C11.0536 10.7782 10.4964 10.9091 9.73545 10.9091C9.35182 10.9091 8.95455 10.89 8.54273 10.8509ZM5.03636 6.60364L4.46909 8.69091C4.46909 8.70545 4.47364 8.72 4.48364 8.73455C4.49273 8.74364 4.50546 8.74909 4.52 8.74909H5.56727C5.57401 8.74929 5.58071 8.7481 5.58697 8.7456C5.59322 8.7431 5.5989 8.73934 5.60364 8.73455C5.61818 8.72 5.62273 8.70545 5.61818 8.69091L5.05091 6.60364C5.05091 6.59909 5.04818 6.59636 5.04364 6.59636C5.03818 6.59636 5.03636 6.59909 5.03636 6.60364ZM3.02273 10.8364C2.97552 10.8378 2.92871 10.8272 2.88672 10.8056C2.84474 10.784 2.80894 10.752 2.78273 10.7127C2.75449 10.6746 2.73636 10.6299 2.73 10.5829C2.72364 10.5358 2.72927 10.4879 2.74636 10.4436L4.27273 5.92C4.31393 5.80694 4.38723 5.70837 4.48364 5.63636C4.58065 5.56523 4.69788 5.527 4.81818 5.52727H5.29818C5.42364 5.52727 5.53545 5.56364 5.63273 5.63636C5.73455 5.70909 5.80455 5.80364 5.84364 5.92L7.37818 10.4436C7.39534 10.4883 7.40034 10.5368 7.39268 10.5841C7.38501 10.6313 7.36495 10.6757 7.33455 10.7127C7.30833 10.752 7.27254 10.784 7.23055 10.8056C7.18856 10.8272 7.14176 10.8378 7.09455 10.8364H6.60727C6.48934 10.8358 6.37466 10.7976 6.28 10.7273C6.18553 10.6534 6.11681 10.5516 6.08364 10.4364L5.90182 9.74545C5.89636 9.70636 5.87 9.68727 5.82182 9.68727H4.26636C4.22273 9.68727 4.19545 9.70636 4.18636 9.74545L4.00455 10.4364C3.97507 10.5533 3.9056 10.6562 3.80818 10.7273C3.71424 10.799 3.59909 10.8374 3.48091 10.8364H3.02273ZM11.8182 3.18182C11.6976 3.18182 11.582 3.22971 11.4968 3.31495C11.4115 3.4002 11.3636 3.51581 11.3636 3.63636C11.3636 3.75692 11.4115 3.87253 11.4968 3.95778C11.582 4.04302 11.6976 4.09091 11.8182 4.09091C12.1798 4.09091 12.5267 4.23458 12.7824 4.49031C13.0382 4.74604 13.1818 5.09289 13.1818 5.45455V10.9091C13.1818 11.2708 13.0382 11.6176 12.7824 11.8733C12.5267 12.1291 12.1798 12.2727 11.8182 12.2727C11.6976 12.2727 11.582 12.3206 11.4968 12.4059C11.4115 12.4911 11.3636 12.6067 11.3636 12.7273C11.3636 12.8478 11.4115 12.9634 11.4968 13.0487C11.582 13.1339 11.6976 13.1818 11.8182 13.1818C12.171 13.1818 12.519 13.0997 12.8346 12.9419C13.1502 12.7841 13.4247 12.555 13.6364 12.2727C13.881 12.5984 14.2084 12.8527 14.5845 13.0091C14.8604 13.1232 15.156 13.1819 15.4545 13.1818C15.5751 13.1818 15.6907 13.1339 15.776 13.0487C15.8612 12.9634 15.9091 12.8478 15.9091 12.7273C15.9091 12.6067 15.8612 12.4911 15.776 12.4059C15.6907 12.3206 15.5751 12.2727 15.4545 12.2727C15.0929 12.2727 14.746 12.1291 14.4903 11.8733C14.2346 11.6176 14.0909 11.2708 14.0909 10.9091V5.45455C14.0914 5.09303 14.2352 4.74647 14.4908 4.49084C14.7465 4.23521 15.093 4.09139 15.4545 4.09091C15.5751 4.09091 15.6907 4.04302 15.776 3.95778C15.8612 3.87253 15.9091 3.75692 15.9091 3.63636C15.9091 3.51581 15.8612 3.4002 15.776 3.31495C15.6907 3.22971 15.5751 3.18182 15.4545 3.18182C15.1017 3.18182 14.7537 3.26397 14.4382 3.42176C14.1226 3.57955 13.8481 3.80865 13.6364 4.09091C13.4246 3.80875 13.15 3.57973 12.8345 3.42195C12.5189 3.26417 12.171 3.18196 11.8182 3.18182Z" fill="#7782B9"/>
</svg>
