<svg width="20" height="20" viewBox="0 0 20 20" fill="none" xmlns="http://www.w3.org/2000/svg">
<path fill-rule="evenodd" clip-rule="evenodd" d="M3 0C2.20435 0 1.44129 0.316071 0.87868 0.87868C0.316071 1.44129 0 2.20435 0 3V17C0 17.7956 0.316071 18.5587 0.87868 19.1213C1.44129 19.6839 2.20435 20 3 20H17C17.7956 20 18.5587 19.6839 19.1213 19.1213C19.6839 18.5587 20 17.7956 20 17V3C20 2.20435 19.6839 1.44129 19.1213 0.87868C18.5587 0.316071 17.7956 0 17 0H3ZM15.707 7.707C15.8892 7.5184 15.99 7.2658 15.9877 7.0036C15.9854 6.7414 15.8802 6.49059 15.6948 6.30518C15.5094 6.11977 15.2586 6.0146 14.9964 6.01233C14.7342 6.01005 14.4816 6.11084 14.293 6.293L9 11.586L6.707 9.293C6.5184 9.11084 6.2658 9.01005 6.0036 9.01233C5.7414 9.0146 5.49059 9.11977 5.30518 9.30518C5.11977 9.49059 5.0146 9.7414 5.01233 10.0036C5.01005 10.2658 5.11084 10.5184 5.293 10.707L8.293 13.707C8.48053 13.8945 8.73484 13.9998 9 13.9998C9.26516 13.9998 9.51947 13.8945 9.707 13.707L15.707 7.707Z" fill="#7782B9"/>
</svg>
