<svg width="20" height="20" viewBox="0 0 20 20" fill="none" xmlns="http://www.w3.org/2000/svg">
<path fill-rule="evenodd" clip-rule="evenodd" d="M0.87868 0.87868C1.44129 0.316071 2.20435 0 3 0H17C17.7956 0 18.5587 0.316071 19.1213 0.87868C19.6839 1.44129 20 2.20435 20 3V17C20 17.7956 19.6839 18.5587 19.1213 19.1213C18.5587 19.6839 17.7956 20 17 20H3C2.20435 20 1.44129 19.6839 0.87868 19.1213C0.316071 18.5587 0 17.7956 0 17V3C0 2.20435 0.316071 1.44129 0.87868 0.87868ZM10.3517 9.16834H9.28965V9.63594V10.1904V10.6313H10.3517C10.692 10.6313 10.9862 10.6825 11.2345 10.7849C11.4828 10.8873 11.6736 11.0477 11.8069 11.2659C11.9402 11.4796 12.0069 11.7646 12.0069 12.1209C12.0069 12.397 11.9448 12.6397 11.8207 12.849C11.7011 13.0539 11.5264 13.2142 11.2966 13.33C11.0713 13.4413 10.8 13.497 10.4828 13.497C10.2023 13.497 9.94713 13.4413 9.71724 13.33C9.49195 13.2187 9.31494 13.065 9.18621 12.8691C9.05747 12.6731 8.9931 12.4505 8.9931 12.2011H7C7 12.682 7.09655 13.0984 7.28966 13.4502C7.48736 13.7976 7.74943 14.0871 8.07586 14.3186C8.4069 14.5458 8.77471 14.7172 9.17931 14.833C9.58851 14.9443 10.0046 15 10.4276 15C10.9379 15 11.4092 14.9377 11.8414 14.813C12.2736 14.6838 12.6506 14.4968 12.9724 14.2518C13.2989 14.0069 13.5517 13.7085 13.731 13.3567C13.9103 13.0004 14 12.5952 14 12.1409C14 11.7713 13.9287 11.4351 13.7862 11.1323C13.6437 10.825 13.4322 10.56 13.1517 10.3373C12.9113 10.1427 12.622 9.98728 12.2837 9.87113C12.5479 9.75225 12.7798 9.60928 12.9793 9.44222C13.2552 9.21064 13.4667 8.95235 13.6138 8.66733C13.7609 8.37787 13.8345 8.07949 13.8345 7.77221C13.8345 7.16656 13.692 6.65887 13.4069 6.24917C13.1218 5.83946 12.7241 5.52995 12.2138 5.32064C11.7034 5.10688 11.108 5 10.4276 5C9.82529 5 9.27356 5.11133 8.77241 5.334C8.27126 5.55667 7.87126 5.86618 7.57241 6.26253C7.27816 6.65887 7.13103 7.12425 7.13103 7.65865H9.12414C9.12414 7.41817 9.18621 7.21332 9.31034 7.04409C9.43448 6.87486 9.6 6.74349 9.8069 6.64997C10.0138 6.55645 10.2391 6.50969 10.4828 6.50969C10.7908 6.50969 11.046 6.56535 11.2483 6.67669C11.4506 6.78357 11.6 6.93498 11.6966 7.13093C11.7977 7.32242 11.8483 7.54286 11.8483 7.79225C11.8483 8.06836 11.7931 8.31107 11.6828 8.52037C11.577 8.72523 11.4138 8.88555 11.1931 9.00134C10.9724 9.11267 10.692 9.16834 10.3517 9.16834Z" fill="#7782B9"/>
</svg>
