<svg width="20" height="14" viewBox="0 0 20 14" fill="none" xmlns="http://www.w3.org/2000/svg">
<path d="M5.30966 3.28848L4.00566 8.08748C4.00645 8.12335 4.01794 8.15818 4.03866 8.18748C4.06166 8.20948 4.08866 8.22048 4.12266 8.22048H6.53066C6.54601 8.2209 6.56129 8.2182 6.57556 8.21253C6.58983 8.20685 6.6028 8.19833 6.61366 8.18748C6.64766 8.15348 6.65866 8.12048 6.64766 8.08748L5.34366 3.28748C5.34366 3.27748 5.33766 3.27148 5.32666 3.27148C5.31566 3.27148 5.30966 3.27748 5.30966 3.28848ZM0.679661 13.0195C0.571114 13.0229 0.463491 12.9986 0.366923 12.9489C0.270354 12.8992 0.188017 12.8258 0.127661 12.7355C0.0624618 12.6478 0.0205578 12.5451 0.00586742 12.4368C-0.00882296 12.3286 0.00418011 12.2183 0.0436611 12.1165L3.55566 1.71648C3.65566 1.44848 3.81666 1.23148 4.03966 1.06448C4.27466 0.897476 4.52966 0.813477 4.80966 0.813477H5.91266C6.20266 0.813477 6.45866 0.897477 6.68266 1.06348C6.91566 1.23148 7.07766 1.44848 7.16666 1.71648L10.6947 12.1165C10.7342 12.2193 10.7458 12.3307 10.7282 12.4395C10.7106 12.5482 10.6646 12.6504 10.5947 12.7355C10.5343 12.8258 10.452 12.8992 10.3554 12.9489C10.2588 12.9986 10.1512 13.0229 10.0427 13.0195H8.92266C8.6514 13.0187 8.38752 12.9311 8.16966 12.7695C7.95241 12.5993 7.79455 12.3648 7.71866 12.0995L7.29966 10.5125C7.28866 10.4225 7.22766 10.3785 7.11566 10.3785H3.53766C3.43766 10.3785 3.37566 10.4235 3.35366 10.5125L2.93566 12.1015C2.86866 12.3685 2.71766 12.5915 2.48366 12.7695C2.26807 12.9348 2.00333 13.0232 1.73166 13.0205H0.678661L0.679661 13.0195ZM16.6127 9.02348C15.8547 9.02348 15.2757 9.14048 14.8747 9.37448C14.4847 9.60848 14.2887 9.92048 14.2887 10.3115C14.2887 10.6115 14.3787 10.8455 14.5567 11.0135C14.7467 11.1805 14.9967 11.2635 15.3087 11.2635C15.8667 11.2635 16.3237 11.0915 16.6797 10.7455C17.0477 10.4005 17.2317 9.95948 17.2317 9.42548V9.15748C17.2317 9.06748 17.1817 9.02348 17.0817 9.02348H16.6127ZM14.6067 13.1865C13.7707 13.1865 13.1017 12.9525 12.6007 12.4845C12.0987 12.0165 11.8477 11.3755 11.8477 10.5615C11.8477 9.60348 12.2547 8.83448 13.0677 8.25448C13.8937 7.67448 15.0747 7.38448 16.6127 7.38448H17.0817C17.1817 7.38448 17.2317 7.33448 17.2317 7.23448C17.2217 6.78848 17.1147 6.48148 16.9147 6.31448C16.7247 6.13648 16.3907 6.04748 15.9107 6.04748C15.1417 6.04748 14.3447 6.18048 13.5207 6.44748C13.4118 6.4868 13.2958 6.50267 13.1803 6.49405C13.0649 6.48544 12.9525 6.45253 12.8507 6.39748C12.7536 6.34522 12.67 6.2713 12.6061 6.18147C12.5423 6.09163 12.5001 5.98829 12.4827 5.87948L12.4667 5.84648C12.4092 5.57895 12.4508 5.29967 12.5837 5.06048C12.6454 4.94269 12.7307 4.83885 12.8343 4.75541C12.9378 4.67198 13.0574 4.61073 13.1857 4.57548C14.1073 4.29736 15.0649 4.15652 16.0277 4.15748C17.4217 4.15748 18.4137 4.42548 19.0047 4.96048C19.6067 5.48448 19.9067 6.34848 19.9067 7.55148V10.6785C19.9067 11.2245 19.9347 11.6935 19.9907 12.0835C20.0088 12.199 20.0018 12.3171 19.97 12.4296C19.9382 12.5421 19.8825 12.6465 19.8067 12.7355C19.7353 12.8263 19.6437 12.8993 19.5392 12.9486C19.4347 12.9978 19.3202 13.0221 19.2047 13.0195H18.5697C18.3 13.0228 18.0384 12.9279 17.8337 12.7525C17.6367 12.5811 17.5114 12.3419 17.4827 12.0825C17.469 12.0388 17.458 11.9944 17.4497 11.9495V11.8155C17.4497 11.8055 17.4437 11.7995 17.4327 11.7995C17.4107 11.7995 17.3987 11.8045 17.3987 11.8155C17.0889 12.2468 16.6746 12.5923 16.1947 12.8195C15.7007 13.0626 15.1572 13.1882 14.6067 13.1865Z" fill="#7782B9"/>
</svg>
