<svg width="23" height="18" viewBox="0 0 23 18" fill="none" xmlns="http://www.w3.org/2000/svg">
<path d="M23 17C23 17.5523 22.5523 18 22 18H1C0.447715 18 0 17.5523 0 17V14C0 13.4477 0.447715 13 1 13H22C22.5523 13 23 13.4477 23 14V17ZM23 10.5C23 11.0523 22.5523 11.5 22 11.5H1C0.447715 11.5 0 11.0523 0 10.5V7.5C0 6.94772 0.447715 6.5 1 6.5H22C22.5523 6.5 23 6.94772 23 7.5V10.5ZM23 4C23 4.55228 22.5523 5 22 5H1C0.447715 5 0 4.55228 0 4V1C0 0.447715 0.447715 0 1 0H22C22.5523 0 23 0.447715 23 1V4Z" fill="#7782B9"/>
</svg>
