<svg width="20" height="20" viewBox="0 0 20 20" fill="none" xmlns="http://www.w3.org/2000/svg">
<path fill-rule="evenodd" clip-rule="evenodd" d="M0 1C0 0.734784 0.105357 0.48043 0.292893 0.292893C0.48043 0.105357 0.734784 0 1 0H19C19.2652 0 19.5196 0.105357 19.7071 0.292893C19.8946 0.48043 20 0.734784 20 1C20 1.26522 19.8946 1.51957 19.7071 1.70711C19.5196 1.89464 19.2652 2 19 2H1C0.734784 2 0.48043 1.89464 0.292893 1.70711C0.105357 1.51957 0 1.26522 0 1ZM9.375 4.22C9.55236 4.078 9.77279 4.00062 10 4.00062C10.2272 4.00062 10.4476 4.078 10.625 4.22L13.125 6.22C13.2321 6.30046 13.3219 6.40161 13.3892 6.51745C13.4564 6.63329 13.4997 6.76147 13.5165 6.89436C13.5333 7.02726 13.5232 7.16217 13.4868 7.29109C13.4504 7.42 13.3885 7.5403 13.3047 7.64483C13.221 7.74936 13.1171 7.836 12.9992 7.8996C12.8813 7.96321 12.7518 8.00248 12.6185 8.01509C12.4851 8.02769 12.3506 8.01338 12.2229 7.973C12.0952 7.93261 11.9769 7.86698 11.875 7.78L11 7.08V12.92L11.875 12.22C12.0827 12.064 12.343 11.9949 12.6008 12.0274C12.8586 12.0599 13.0936 12.1915 13.256 12.3942C13.4185 12.597 13.4956 12.855 13.4712 13.1136C13.4467 13.3723 13.3226 13.6113 13.125 13.78L10.625 15.78C10.4476 15.922 10.2272 15.9994 10 15.9994C9.77279 15.9994 9.55236 15.922 9.375 15.78L6.875 13.78C6.67742 13.6113 6.55326 13.3723 6.52881 13.1136C6.50435 12.855 6.58153 12.597 6.74399 12.3942C6.90645 12.1915 7.14144 12.0599 7.39921 12.0274C7.65697 11.9949 7.91728 12.064 8.125 12.22L9 12.92V7.08L8.125 7.78C8.02313 7.86698 7.90483 7.93261 7.77711 7.973C7.6494 8.01338 7.51487 8.02769 7.38151 8.01509C7.24816 8.00248 7.11869 7.96321 7.00081 7.8996C6.88292 7.836 6.77901 7.74936 6.69525 7.64483C6.61149 7.5403 6.54959 7.42 6.51321 7.29109C6.47684 7.16217 6.46673 7.02726 6.4835 6.89436C6.50026 6.76147 6.54356 6.63329 6.61081 6.51745C6.67806 6.40161 6.7679 6.30046 6.875 6.22L9.375 4.22ZM1 18C0.734784 18 0.48043 18.1054 0.292893 18.2929C0.105357 18.4804 0 18.7348 0 19C0 19.2652 0.105357 19.5196 0.292893 19.7071C0.48043 19.8946 0.734784 20 1 20H19C19.2652 20 19.5196 19.8946 19.7071 19.7071C19.8946 19.5196 20 19.2652 20 19C20 18.7348 19.8946 18.4804 19.7071 18.2929C19.5196 18.1054 19.2652 18 19 18H1Z" fill="#7782B9"/>
</svg>
