<svg width="20" height="20" viewBox="0 0 20 20" fill="none" xmlns="http://www.w3.org/2000/svg">
<path fill-rule="evenodd" clip-rule="evenodd" d="M11.8182 0.909058C11.5771 0.909058 11.3458 1.00484 11.1754 1.17532C11.0049 1.34581 10.9091 1.57704 10.9091 1.81815C10.9091 2.05925 11.0049 2.29049 11.1754 2.46097C11.3458 2.63146 11.5771 2.72724 11.8182 2.72724C12.3004 2.72724 12.7629 2.9188 13.1038 3.25977C13.4448 3.60075 13.6364 4.06321 13.6364 4.54542V15.4545C13.6364 15.9367 13.4448 16.3992 13.1038 16.7402C12.7629 17.0811 12.3004 17.2727 11.8182 17.2727C11.5771 17.2727 11.3458 17.3685 11.1754 17.539C11.0049 17.7094 10.9091 17.9407 10.9091 18.1818C10.9091 18.4229 11.0049 18.6541 11.1754 18.8246C11.3458 18.9951 11.5771 19.0909 11.8182 19.0909C12.3341 19.0909 12.8441 18.9812 13.3143 18.7689C13.7845 18.5567 14.2042 18.2469 14.5455 17.86C14.8866 18.2469 15.3063 18.5569 15.7765 18.7691C16.2468 18.9813 16.7568 19.091 17.2727 19.0909C17.5138 19.0909 17.7451 18.9951 17.9156 18.8246C18.086 18.6541 18.1818 18.4229 18.1818 18.1818C18.1818 17.9407 18.086 17.7094 17.9156 17.539C17.7451 17.3685 17.5138 17.2727 17.2727 17.2727C16.7905 17.2727 16.3281 17.0811 15.9871 16.7402C15.6461 16.3992 15.4545 15.9367 15.4545 15.4545V4.54542C15.4545 4.06321 15.6461 3.60075 15.9871 3.25977C16.3281 2.9188 16.7905 2.72724 17.2727 2.72724C17.5138 2.72724 17.7451 2.63146 17.9156 2.46097C18.086 2.29049 18.1818 2.05925 18.1818 1.81815C18.1818 1.57704 18.086 1.34581 17.9156 1.17532C17.7451 1.00484 17.5138 0.909058 17.2727 0.909058C16.7568 0.909029 16.2468 1.01877 15.7766 1.231C15.3064 1.44322 14.8867 1.75307 14.5455 2.13997C14.1791 1.72354 13.7218 1.39694 13.2091 1.18542C12.7681 1.00291 12.2955 0.909006 11.8182 0.909058ZM12.7273 4.54542H1.81818C1.33597 4.54542 0.873508 4.73698 0.532533 5.07795C0.191558 5.41893 0 5.88139 0 6.3636V13.6363C0 14.1185 0.191558 14.581 0.532533 14.922C0.873508 15.263 1.33597 15.4545 1.81818 15.4545H12.7273V13.6363H1.81818V6.3636H12.7273V4.54542ZM16.3636 15.4545V13.6363H18.1818V6.3636H16.3636V4.54542H18.1818C18.664 4.54542 19.1265 4.73698 19.4675 5.07795C19.8084 5.41893 20 5.88139 20 6.3636V13.6363C20 14.1185 19.8084 14.581 19.4675 14.922C19.1265 15.263 18.664 15.4545 18.1818 15.4545H16.3636ZM6.00909 8.37815L5.42727 10.5236C5.42727 10.5381 5.43182 10.5527 5.44182 10.5681C5.45091 10.5772 5.46364 10.5827 5.47818 10.5827H6.55455C6.57 10.5827 6.58182 10.5781 6.59182 10.5681C6.60727 10.5527 6.61182 10.5381 6.60727 10.5227L6.02455 8.37815C6.02455 8.3736 6.02182 8.37088 6.01636 8.37088C6.01182 8.37088 6.00909 8.3736 6.00909 8.37815ZM3.94 12.7272C3.89135 12.7289 3.8431 12.718 3.79982 12.6958C3.75654 12.6735 3.71967 12.6405 3.69273 12.6C3.66386 12.5607 3.64539 12.5148 3.63904 12.4665C3.63268 12.4181 3.63864 12.369 3.65636 12.3236L5.22455 7.67633C5.26709 7.56027 5.3426 7.45916 5.44182 7.38542C5.54139 7.31212 5.66181 7.27262 5.78545 7.27269H6.27818C6.40818 7.27269 6.52273 7.30997 6.62182 7.38451C6.72388 7.45535 6.80014 7.55745 6.83909 7.67542L8.41545 12.3236C8.43309 12.3696 8.43818 12.4194 8.43019 12.4679C8.4222 12.5165 8.40142 12.5621 8.37 12.6C8.34322 12.6402 8.30664 12.673 8.26371 12.6953C8.22078 12.7176 8.17289 12.7286 8.12455 12.7272H7.62364C7.50245 12.7269 7.38457 12.6877 7.28727 12.6154C7.18999 12.5393 7.11933 12.4342 7.08545 12.3154L6.89818 11.6063C6.89364 11.5663 6.86636 11.5463 6.81636 11.5463H5.21727C5.17182 11.5463 5.14455 11.5663 5.13545 11.6063L4.94818 12.3154C4.91815 12.436 4.84672 12.5422 4.74636 12.6154C4.64979 12.689 4.53143 12.7284 4.41 12.7272H3.94Z" fill="#7782B9"/>
</svg>
